<svg width="910" height="577" xmlns="http://www.w3.org/2000/svg" xmlns:xlink="http://www.w3.org/1999/xlink" overflow="hidden"><defs><clipPath id="clip0"><rect x="1447" y="1058" width="910" height="577"/></clipPath></defs><g clip-path="url(#clip0)" transform="translate(-1447 -1058)"><path d="M1633.5 1283C1633.5 1237.99 1648.72 1201.5 1667.5 1201.5 1686.28 1201.5 1701.5 1237.99 1701.5 1283 1701.5 1328.01 1686.28 1364.5 1667.5 1364.5 1648.72 1364.5 1633.5 1328.01 1633.5 1283Z" stroke="#FF0000" stroke-width="6.875" stroke-linejoin="round" stroke-miterlimit="10" stroke-dasharray="6.875 6.875" fill="none" fill-rule="evenodd"/><path d="M0 0 0.000360892 449.093" stroke="#D0CECE" stroke-width="4.58333" stroke-miterlimit="8" stroke-dasharray="18.3333 13.75" fill="none" fill-rule="evenodd" transform="matrix(1 0 0 -1 2290.5 1536.59)"/><path d="M1481.5 1387.5 2290.55 1387.5" stroke="#D0CECE" stroke-width="4.58333" stroke-miterlimit="8" stroke-dasharray="18.3333 13.75" fill="none" fill-rule="evenodd"/><path d="M1480.5 1536.5 2290.69 1536.5" stroke="#D0CECE" stroke-width="4.58333" stroke-miterlimit="8" stroke-dasharray="18.3333 13.75" fill="none" fill-rule="evenodd"/><path d="M1481.5 1088.5 2290.55 1088.5" stroke="#D0CECE" stroke-width="4.58333" stroke-miterlimit="8" stroke-dasharray="18.3333 13.75" fill="none" fill-rule="evenodd"/><path d="M1481.5 1237.5 2290.55 1237.5" stroke="#D0CECE" stroke-width="4.58333" stroke-miterlimit="8" stroke-dasharray="18.3333 13.75" fill="none" fill-rule="evenodd"/><path d="M0 0 0.000360892 449.093" stroke="#D0CECE" stroke-width="4.58333" stroke-miterlimit="8" stroke-dasharray="18.3333 13.75" fill="none" fill-rule="evenodd" transform="matrix(1 0 0 -1 1481.5 1537.59)"/><path d="M0 0 0.000360892 449.093" stroke="#D0CECE" stroke-width="4.58333" stroke-miterlimit="8" stroke-dasharray="18.3333 13.75" fill="none" fill-rule="evenodd" transform="matrix(1 0 0 -1 1597.5 1537.59)"/><path d="M0 0 0.000360892 449.093" stroke="#D0CECE" stroke-width="4.58333" stroke-miterlimit="8" stroke-dasharray="18.3333 13.75" fill="none" fill-rule="evenodd" transform="matrix(1 0 0 -1 1712.5 1537.59)"/><path d="M0 0 0.000360892 449.093" stroke="#D0CECE" stroke-width="4.58333" stroke-miterlimit="8" stroke-dasharray="18.3333 13.75" fill="none" fill-rule="evenodd" transform="matrix(1 0 0 -1 1828.5 1537.59)"/><path d="M0 0 0.000360892 449.093" stroke="#D0CECE" stroke-width="4.58333" stroke-miterlimit="8" stroke-dasharray="18.3333 13.75" fill="none" fill-rule="evenodd" transform="matrix(1 0 0 -1 1943.5 1537.59)"/><path d="M0 0 0.000360892 449.093" stroke="#D0CECE" stroke-width="4.58333" stroke-miterlimit="8" stroke-dasharray="18.3333 13.75" fill="none" fill-rule="evenodd" transform="matrix(1 0 0 -1 2059.5 1538.59)"/><path d="M0 0 0.000360892 449.093" stroke="#D0CECE" stroke-width="4.58333" stroke-miterlimit="8" stroke-dasharray="18.3333 13.75" fill="none" fill-rule="evenodd" transform="matrix(1 0 0 -1 2174.5 1537.59)"/><path d="M1535 1142.5C1535 1136.15 1540.15 1131 1546.5 1131 1552.85 1131 1558 1136.15 1558 1142.5 1558 1148.85 1552.85 1154 1546.5 1154 1540.15 1154 1535 1148.85 1535 1142.5Z" fill="#767171" fill-rule="evenodd"/><path d="M1659 1256.5C1659 1250.15 1664.15 1245 1670.5 1245 1676.85 1245 1682 1250.15 1682 1256.5 1682 1262.85 1676.85 1268 1670.5 1268 1664.15 1268 1659 1262.85 1659 1256.5Z" fill="#767171" fill-rule="evenodd"/><path d="M1787 1142.5C1787 1136.15 1792.15 1131 1798.5 1131 1804.85 1131 1810 1136.15 1810 1142.5 1810 1148.85 1804.85 1154 1798.5 1154 1792.15 1154 1787 1148.85 1787 1142.5Z" fill="#767171" fill-rule="evenodd"/><path d="M1903 1142.5C1903 1136.15 1908.15 1131 1914.5 1131 1920.85 1131 1926 1136.15 1926 1142.5 1926 1148.85 1920.85 1154 1914.5 1154 1908.15 1154 1903 1148.85 1903 1142.5Z" fill="#767171" fill-rule="evenodd"/><path d="M2012 1142.5C2012 1136.15 2017.37 1131 2024 1131 2030.63 1131 2036 1136.15 2036 1142.5 2036 1148.85 2030.63 1154 2024 1154 2017.37 1154 2012 1148.85 2012 1142.5Z" fill="#767171" fill-rule="evenodd"/><path d="M2120 1255.5C2120 1249.15 2125.15 1244 2131.5 1244 2137.85 1244 2143 1249.15 2143 1255.5 2143 1261.85 2137.85 1267 2131.5 1267 2125.15 1267 2120 1261.85 2120 1255.5Z" fill="#767171" fill-rule="evenodd"/><path d="M2234 1142.5C2234 1136.15 2239.37 1131 2246 1131 2252.63 1131 2258 1136.15 2258 1142.5 2258 1148.85 2252.63 1154 2246 1154 2239.37 1154 2234 1148.85 2234 1142.5Z" fill="#767171" fill-rule="evenodd"/><path d="M1533 1309.5C1533 1303.15 1538.15 1298 1544.5 1298 1550.85 1298 1556 1303.15 1556 1309.5 1556 1315.85 1550.85 1321 1544.5 1321 1538.15 1321 1533 1315.85 1533 1309.5Z" fill="#767171" fill-rule="evenodd"/><path d="M1657 1309.5C1657 1303.15 1662.15 1298 1668.5 1298 1674.85 1298 1680 1303.15 1680 1309.5 1680 1315.85 1674.85 1321 1668.5 1321 1662.15 1321 1657 1315.85 1657 1309.5Z" fill="#767171" fill-rule="evenodd"/><path d="M1787 1419.5C1787 1413.15 1792.15 1408 1798.5 1408 1804.85 1408 1810 1413.15 1810 1419.5 1810 1425.85 1804.85 1431 1798.5 1431 1792.15 1431 1787 1425.85 1787 1419.5Z" fill="#767171" fill-rule="evenodd"/><path d="M1902 1419.5C1902 1413.15 1907.15 1408 1913.5 1408 1919.85 1408 1925 1413.15 1925 1419.5 1925 1425.85 1919.85 1431 1913.5 1431 1907.15 1431 1902 1425.85 1902 1419.5Z" fill="#767171" fill-rule="evenodd"/><path d="M2012 1419.5C2012 1413.15 2017.15 1408 2023.5 1408 2029.85 1408 2035 1413.15 2035 1419.5 2035 1425.85 2029.85 1431 2023.5 1431 2017.15 1431 2012 1425.85 2012 1419.5Z" fill="#767171" fill-rule="evenodd"/><path d="M2120 1309.5C2120 1303.15 2125.15 1298 2131.5 1298 2137.85 1298 2143 1303.15 2143 1309.5 2143 1315.85 2137.85 1321 2131.5 1321 2125.15 1321 2120 1315.85 2120 1309.5Z" fill="#767171" fill-rule="evenodd"/><path d="M2238 1309.5C2238 1303.15 2243.15 1298 2249.5 1298 2255.85 1298 2261 1303.15 2261 1309.5 2261 1315.85 2255.85 1321 2249.5 1321 2243.15 1321 2238 1315.85 2238 1309.5Z" fill="#767171" fill-rule="evenodd"/><path d="M1556 1308.85 1654.76 1308.85 1654.76 1311.15 1556 1311.15ZM1637.03 1297.57 1656.92 1310 1637.03 1322.43C1636.5 1322.77 1635.79 1322.6 1635.45 1322.07 1635.12 1321.53 1635.28 1320.82 1635.82 1320.49L1654.15 1309.03 1654.15 1310.97 1635.82 1299.51C1635.28 1299.18 1635.12 1298.47 1635.45 1297.93 1635.79 1297.4 1636.5 1297.23 1637.03 1297.57Z" fill="#AFABAB"/><path d="M1680.82 1309.2 1785.85 1417.51 1784.21 1419.1 1679.18 1310.8ZM1781.61 1396.93 1786.53 1419.86 1763.77 1414.23C1763.15 1414.08 1762.78 1413.46 1762.93 1412.85 1763.08 1412.23 1763.7 1411.86 1764.32 1412.01L1785.3 1417.19 1783.91 1418.55 1779.37 1397.41C1779.24 1396.79 1779.63 1396.18 1780.25 1396.05 1780.87 1395.91 1781.48 1396.31 1781.61 1396.93Z" fill="#AFABAB"/><path d="M1810 1417.85 1900.13 1417.85 1900.13 1420.15 1810 1420.15ZM1882.4 1406.57 1902.29 1419 1882.4 1431.43C1881.87 1431.77 1881.16 1431.6 1880.83 1431.07 1880.49 1430.53 1880.65 1429.82 1881.19 1429.49L1899.52 1418.03 1899.52 1419.97 1881.19 1408.51C1880.65 1408.18 1880.49 1407.47 1880.83 1406.93 1881.16 1406.4 1881.87 1406.23 1882.4 1406.57Z" fill="#AFABAB"/><path d="M1925 1417.85 2009.58 1417.85 2009.58 1420.15 1925 1420.15ZM1991.86 1406.57 2011.74 1419 1991.86 1431.43C1991.32 1431.77 1990.61 1431.6 1990.28 1431.07 1989.94 1430.53 1990.11 1429.82 1990.64 1429.49L2008.98 1418.03 2008.98 1419.97 1990.64 1408.51C1990.11 1408.18 1989.94 1407.47 1990.28 1406.93 1990.61 1406.4 1991.32 1406.23 1991.86 1406.57Z" fill="#AFABAB"/><path d="M0.85037-0.767988 91.2388 99.3164 89.538 100.852-0.85037 0.767988ZM87.7329 78.5985 91.8379 101.689 69.2833 95.2608C68.6747 95.0874 68.3219 94.4534 68.4954 93.8448 68.6689 93.2362 69.3028 92.8835 69.9114 93.0569L90.7029 98.9829 89.2607 100.285 85.4766 78.9997C85.3658 78.3766 85.7811 77.7817 86.4042 77.671 87.0272 77.5602 87.6221 77.9755 87.7329 78.5985Z" fill="#AFABAB" transform="matrix(1 0 0 -1 2032 1411.68)"/><path d="M2147 1308.85 2236.59 1308.85 2236.59 1311.15 2147 1311.15ZM2218.87 1297.57 2238.75 1310 2218.86 1322.43C2218.33 1322.77 2217.62 1322.6 2217.29 1322.07 2216.95 1321.53 2217.11 1320.82 2217.65 1320.49L2235.98 1309.03 2235.98 1310.97 2217.65 1299.51C2217.11 1299.18 2216.95 1298.47 2217.29 1297.93 2217.62 1297.4 2218.33 1297.23 2218.87 1297.57Z" fill="#AFABAB"/><path d="M1554.81 1150.19 1657.59 1253.27 1655.96 1254.89 1553.19 1151.81ZM1653.06 1232.75 1658.3 1255.61 1635.46 1250.3C1634.84 1250.16 1634.46 1249.54 1634.6 1248.93 1634.74 1248.31 1635.36 1247.93 1635.98 1248.07L1657.03 1252.96 1655.66 1254.34 1650.83 1233.26C1650.69 1232.65 1651.07 1232.03 1651.69 1231.89 1652.31 1231.75 1652.92 1232.13 1653.06 1232.75Z" fill="#AFABAB"/><path d="M0.83687-0.782676 104.835 110.417 103.162 111.982-0.83687 0.782676ZM100.969 89.7629 105.475 112.779 82.8123 106.744C82.2008 106.581 81.837 105.953 81.9999 105.342 82.1627 104.73 82.7905 104.367 83.402 104.529L104.294 110.093 102.874 111.42 98.7201 90.2033C98.5985 89.5822 99.0033 88.9802 99.6244 88.8586 100.245 88.737 100.847 89.1419 100.969 89.7629Z" fill="#AFABAB" transform="matrix(1 0 0 -1 1682 1255.77)"/><path d="M1810 1141.85 1900.13 1141.85 1900.13 1144.15 1810 1144.15ZM1882.4 1130.57 1902.29 1143 1882.4 1155.43C1881.87 1155.77 1881.16 1155.6 1880.83 1155.07 1880.49 1154.53 1880.65 1153.82 1881.19 1153.49L1899.52 1142.03 1899.52 1143.97 1881.19 1132.51C1880.65 1132.18 1880.49 1131.47 1880.83 1130.93 1881.16 1130.4 1881.87 1130.23 1882.4 1130.57Z" fill="#AFABAB"/><path d="M1926 1141.85 2010.58 1141.85 2010.58 1144.15 1926 1144.15ZM1992.86 1130.57 2012.74 1143 1992.86 1155.43C1992.32 1155.77 1991.61 1155.6 1991.28 1155.07 1990.94 1154.53 1991.11 1153.82 1991.64 1153.49L2009.98 1142.03 2009.98 1143.97 1991.64 1132.51C1991.11 1132.18 1990.94 1131.47 1991.28 1130.93 1991.61 1130.4 1992.32 1130.23 1992.86 1130.57Z" fill="#AFABAB"/><path d="M2032.88 1150.26 2118.95 1253.22 2117.19 1254.69 2031.12 1151.73ZM2116.24 1232.38 2119.46 1255.61 2097.17 1248.33C2096.57 1248.13 2096.24 1247.48 2096.43 1246.88 2096.63 1246.28 2097.28 1245.95 2097.88 1246.15L2118.43 1252.86 2116.94 1254.11 2113.97 1232.7C2113.88 1232.07 2114.32 1231.49 2114.95 1231.4 2115.57 1231.32 2116.15 1231.75 2116.24 1232.38Z" fill="#AFABAB"/><path d="M0.847719-0.770912 94.5269 102.242 92.8315 103.784-0.847719 0.770912ZM90.9491 81.5353 95.1336 104.612 72.557 98.261C71.9478 98.0896 71.5929 97.4569 71.7642 96.8477 71.9356 96.2385 72.5684 95.8836 73.1775 96.055L93.9893 101.909 92.5516 103.217 88.6942 81.9442C88.5813 81.3215 88.9945 80.7252 89.6172 80.6123 90.2399 80.4994 90.8362 80.9126 90.9491 81.5353Z" fill="#AFABAB" transform="matrix(1 0 0 -1 2143 1255.61)"/><path d="M1469 1078.85 2310.64 1078.85 2310.64 1081.15 1469 1081.15ZM2283.71 1062.97 2312.91 1080 2283.71 1097.03C2283.17 1097.35 2282.47 1097.17 2282.15 1096.62 2281.83 1096.07 2282.01 1095.37 2282.56 1095.05L2310.06 1079.01 2310.06 1080.99 2282.56 1064.95C2282.01 1064.63 2281.83 1063.93 2282.15 1063.38 2282.47 1062.83 2283.17 1062.65 2283.71 1062.97Z"/><path d="M1470.15 1080 1470.15 1566.34 1467.85 1566.34 1467.85 1080ZM1486.03 1539.41 1469 1568.61 1451.97 1539.41C1451.65 1538.87 1451.83 1538.17 1452.38 1537.85 1452.93 1537.53 1453.63 1537.71 1453.95 1538.26L1469.99 1565.76 1468.01 1565.76 1484.05 1538.26C1484.37 1537.71 1485.07 1537.53 1485.62 1537.85 1486.17 1538.17 1486.35 1538.87 1486.03 1539.41Z"/><text font-family="Times New Roman,Times New Roman_MSFontService,sans-serif" font-style="italic" font-weight="400" font-size="55" transform="matrix(1 0 0 1 2298.39 1132)">x<tspan font-size="55" x="-815.254" y="457">y</tspan><tspan font-size="55" x="-536.341" y="456">f</tspan><tspan font-size="37" x="-520.872" y="439">sp</tspan><tspan font-size="55" x="-474.466" y="456">= </tspan><tspan font-size="55" x="-423.476" y="456">(x, y)</tspan></text><path d="M2095.5 1283C2095.5 1237.99 2110.72 1201.5 2129.5 1201.5 2148.28 1201.5 2163.5 1237.99 2163.5 1283 2163.5 1328.01 2148.28 1364.5 2129.5 1364.5 2110.72 1364.5 2095.5 1328.01 2095.5 1283Z" stroke="#FF0000" stroke-width="6.875" stroke-linejoin="round" stroke-miterlimit="10" stroke-dasharray="6.875 6.875" fill="none" fill-rule="evenodd"/></g></svg>