<svg width="712" height="678" xmlns="http://www.w3.org/2000/svg" xmlns:xlink="http://www.w3.org/1999/xlink" overflow="hidden"><defs><clipPath id="clip0"><rect x="313" y="24" width="712" height="678"/></clipPath></defs><g clip-path="url(#clip0)" transform="translate(-313 -24)"><text font-family="Times New Roman,Times New Roman_MSFontService,sans-serif" font-weight="400" font-size="14" transform="translate(326.205 76)">I = {<tspan font-size="14" x="26.1667" y="0">T</tspan><tspan font-size="9" x="34.6667" y="3">r</tspan><tspan font-size="14" x="37.8333" y="0">, </tspan>T<tspan font-size="9" x="53.3333" y="3">g</tspan><tspan font-size="14" x="58" y="0">, T</tspan><tspan font-size="9" x="73.5" y="3">b</tspan><tspan font-size="14" x="78.1667" y="0">} </tspan><tspan font-size="14" x="0" y="16">CT = </tspan><tspan font-size="14" x="32.6667" y="16">{Q</tspan><tspan font-size="9" x="49.5" y="19">A1</tspan><tspan font-size="14" x="60.8333" y="16">}</tspan><tspan font-size="14" x="0" y="33">RT = </tspan><tspan font-size="14" x="32.6667" y="33">{Q</tspan><tspan font-size="9" x="49.5" y="36">B1</tspan><tspan font-size="14" x="60.3333" y="33">, …, </tspan>Q<tspan font-size="9" x="98.5" y="36">B4</tspan><tspan font-size="14" x="109.333" y="33">}</tspan><tspan font-size="14" x="0" y="50">extend</tspan><tspan font-size="14" x="40.6667" y="50">= </tspan><tspan font-size="14" x="52" y="50">true</tspan></text><rect x="317" y="131" width="134" height="68" fill="#D0CECE"/><text font-family="Times New Roman,Times New Roman_MSFontService,sans-serif" font-weight="400" font-size="14" transform="translate(326.205 145)">I = {<tspan font-size="14" x="26.1667" y="0">T</tspan><tspan font-size="9" x="34.6667" y="3">r</tspan><tspan font-size="14" x="37.8333" y="0">, </tspan>T<tspan font-size="9" x="53.3333" y="3">g</tspan><tspan font-size="14" x="58" y="0">, T</tspan><tspan font-size="9" x="73.5" y="3">b</tspan><tspan font-size="14" x="78.1667" y="0">} </tspan><tspan font-size="14" x="0" y="16">CT = </tspan><tspan font-size="14" x="32.6667" y="16">{Q</tspan><tspan font-size="9" x="49.5" y="19">B1</tspan><tspan font-size="14" x="60.3333" y="16">}</tspan><tspan font-size="14" x="0" y="33">RT = </tspan><tspan font-size="14" x="32.6667" y="33">{Q</tspan><tspan font-size="9" x="49.5" y="36">C1</tspan><tspan font-size="14" x="60.3333" y="33">, …, </tspan>Q<tspan font-size="9" x="98.5" y="36">B4</tspan><tspan font-size="14" x="109.333" y="33">}</tspan><tspan font-size="14" x="0" y="50">extend</tspan><tspan font-size="14" x="40.6667" y="50">= </tspan><tspan font-size="14" x="52" y="50">true</tspan></text><rect x="317" y="347" width="134" height="68" fill="#D0CECE"/><text font-family="Times New Roman,Times New Roman_MSFontService,sans-serif" font-weight="400" font-size="14" transform="translate(326.205 361)">I = {T<tspan font-size="9" x="34.6667" y="3">g</tspan><tspan font-size="14" x="39.3333" y="0">, </tspan>T<tspan font-size="9" x="54.8333" y="3">b</tspan><tspan font-size="14" x="59.5" y="0">} </tspan><tspan font-size="14" x="0" y="16">CT = </tspan><tspan font-size="14" x="32.6667" y="16">{Q</tspan><tspan font-size="9" x="49.5" y="19">B2</tspan><tspan font-size="14" x="60.3333" y="16">}</tspan><tspan font-size="14" x="0" y="33">RT = </tspan><tspan font-size="14" x="32.6667" y="33">{Q</tspan><tspan font-size="9" x="49.5" y="36">B3</tspan><tspan font-size="14" x="60.3333" y="33">, …, </tspan>Q<tspan font-size="9" x="98.5" y="36">B4</tspan><tspan font-size="14" x="109.333" y="33">}</tspan><tspan font-size="14" x="0" y="50">extend</tspan><tspan font-size="14" x="40.6667" y="50">= </tspan><tspan font-size="14" x="52" y="50">true</tspan></text><rect x="317" y="418" width="134" height="67" fill="#D0CECE"/><text font-family="Times New Roman,Times New Roman_MSFontService,sans-serif" font-weight="400" font-size="14" transform="translate(326.205 432)">I = {T<tspan font-size="9" x="34.6667" y="3">g</tspan><tspan font-size="14" x="39.3333" y="0">, </tspan>T<tspan font-size="9" x="54.8333" y="3">b</tspan><tspan font-size="14" x="59.5" y="0">} </tspan><tspan font-size="14" x="0" y="16">CT = </tspan><tspan font-size="14" x="32.6667" y="16">{Q</tspan><tspan font-size="9" x="49.5" y="19">B3</tspan><tspan font-size="14" x="60.3333" y="16">}</tspan><tspan font-size="14" x="0" y="33">RT = </tspan><tspan font-size="14" x="32.6667" y="33">{Q</tspan><tspan font-size="9" x="49.5" y="36">D3</tspan><tspan font-size="14" x="60.8333" y="33">, </tspan>Q<tspan font-size="9" x="78" y="36">A4</tspan><tspan font-size="14" x="89.3333" y="33">, </tspan>Q<tspan font-size="9" x="106.5" y="36">B4</tspan><tspan font-size="14" x="117.333" y="33">}</tspan><tspan font-size="14" x="0" y="50">extend</tspan><tspan font-size="14" x="40.6667" y="50">= </tspan><tspan font-size="14" x="52" y="50">true</tspan></text><rect x="317" y="556" width="134" height="68" fill="#D0CECE"/><text font-family="Times New Roman,Times New Roman_MSFontService,sans-serif" font-weight="400" font-size="14" transform="translate(326.205 570)">I = {T<tspan font-size="9" x="34.6667" y="3">g</tspan><tspan font-size="14" x="39.3333" y="0">} </tspan><tspan font-size="14" x="0" y="16">CT = </tspan><tspan font-size="14" x="32.6667" y="16">{Q</tspan><tspan font-size="9" x="49.5" y="19">A4</tspan><tspan font-size="14" x="60.8333" y="16">}</tspan><tspan font-size="14" x="0" y="33">RT = </tspan><tspan font-size="14" x="32.6667" y="33">{Q</tspan><tspan font-size="9" x="49.5" y="36">B4</tspan><tspan font-size="14" x="60.3333" y="33">}</tspan><tspan font-size="14" x="0" y="50">extend</tspan><tspan font-size="14" x="40.6667" y="50">= </tspan><tspan font-size="14" x="52" y="50">true</tspan><tspan font-size="21" x="43.1873" y="-518">Job</tspan><tspan font-size="14" x="72.8539" y="-514">0</tspan></text><rect x="314.5" y="58.5001" width="139" height="282" stroke="#000000" stroke-width="1.33333" stroke-miterlimit="8" stroke-dasharray="5.33333 4" fill="none"/><rect x="314.5" y="344.5" width="140" height="350" stroke="#000000" stroke-width="1.33333" stroke-miterlimit="8" stroke-dasharray="5.33333 4" fill="none"/><rect x="317" y="200" width="134" height="68" fill="#D0CECE"/><text font-family="Times New Roman,Times New Roman_MSFontService,sans-serif" font-weight="400" font-size="14" transform="translate(326.205 214)">I = {<tspan font-size="14" x="26.1667" y="0">T</tspan><tspan font-size="9" x="34.6667" y="3">b</tspan><tspan font-size="14" x="39.3333" y="0">} </tspan><tspan font-size="14" x="0" y="16">CT = </tspan><tspan font-size="14" x="32.6667" y="16">{Q</tspan><tspan font-size="9" x="49.5" y="19">C1</tspan><tspan font-size="14" x="60.3333" y="16">}</tspan><tspan font-size="14" x="0" y="33">RT = </tspan><tspan font-size="14" x="32.6667" y="33">{Q</tspan><tspan font-size="9" x="49.5" y="36">D1</tspan><tspan font-size="14" x="60.8333" y="33">, …, </tspan>Q<tspan font-size="9" x="99" y="36">B4</tspan><tspan font-size="14" x="109.833" y="33">}</tspan><tspan font-size="14" x="0" y="50">extend</tspan><tspan font-size="14" x="40.6667" y="50">= </tspan><tspan font-size="14" x="52" y="50">true</tspan></text><rect x="317" y="270" width="134" height="67" fill="#D0CECE"/><text font-family="Times New Roman,Times New Roman_MSFontService,sans-serif" font-weight="400" font-size="14" transform="translate(326.205 284)">I = {<tspan font-size="14" x="26.1667" y="0">T</tspan><tspan font-size="9" x="34.6667" y="3">b</tspan><tspan font-size="14" x="39.3333" y="0">} </tspan><tspan font-size="14" x="0" y="16">CT = </tspan><tspan font-size="14" x="32.6667" y="16">{Q</tspan><tspan font-size="9" x="49.5" y="19">D1</tspan><tspan font-size="14" x="60.8333" y="16">}</tspan><tspan font-size="14" x="0" y="33">RT = </tspan><tspan font-size="14" x="32.6667" y="33">{Q</tspan><tspan font-size="9" x="49.5" y="36">B2</tspan><tspan font-size="14" x="60.3333" y="33">, …, </tspan>Q<tspan font-size="9" x="98.5" y="36">B4</tspan><tspan font-size="14" x="109.333" y="33">}</tspan><tspan font-size="14" x="0" y="50">extend</tspan><tspan font-size="14" x="40.6667" y="50">= </tspan><tspan font-size="14" x="52" y="50">true</tspan></text><rect x="317" y="487" width="134" height="68" fill="#D0CECE"/><text font-family="Times New Roman,Times New Roman_MSFontService,sans-serif" font-weight="400" font-size="14" transform="translate(326.205 501)">I = {<tspan font-size="14" x="26.1667" y="0">T</tspan><tspan font-size="9" x="34.6667" y="3">r</tspan><tspan font-size="14" x="37.8333" y="0">} </tspan><tspan font-size="14" x="0" y="16">CT = </tspan><tspan font-size="14" x="32.6667" y="16">{Q</tspan><tspan font-size="9" x="49.5" y="19">D3</tspan><tspan font-size="14" x="60.8333" y="16">}</tspan><tspan font-size="14" x="0" y="33">RT = </tspan><tspan font-size="14" x="32.6667" y="33">{Q</tspan><tspan font-size="9" x="49.5" y="36">A4</tspan><tspan font-size="14" x="60.8333" y="33">, </tspan>Q<tspan font-size="9" x="78" y="36">B4</tspan><tspan font-size="14" x="88.8333" y="33">}</tspan><tspan font-size="14" x="0" y="50">extend</tspan><tspan font-size="14" x="40.6667" y="50">= </tspan><tspan font-size="14" x="52" y="50">true</tspan></text><rect x="317" y="626" width="134" height="68" fill="#D0CECE"/><text font-family="Times New Roman,Times New Roman_MSFontService,sans-serif" font-weight="400" font-size="14" transform="translate(326.205 640)">I = {T<tspan font-size="9" x="34.6667" y="3">g</tspan><tspan font-size="14" x="39.3333" y="0">} </tspan><tspan font-size="14" x="0" y="16">CT = </tspan><tspan font-size="14" x="32.6667" y="16">{Q</tspan><tspan font-size="9" x="49.5" y="19">B4</tspan><tspan font-size="14" x="60.3333" y="16">}</tspan><tspan font-size="14" x="0" y="33">RT = {}</tspan><tspan font-size="14" x="0" y="50">extend</tspan><tspan font-size="14" x="40.6667" y="50">= </tspan><tspan font-size="14" x="52" y="50">true</tspan><tspan font-size="14" x="162.653" y="-564">I = {</tspan><tspan font-size="14" x="188.82" y="-564">T</tspan><tspan font-size="9" x="197.32" y="-561">r</tspan><tspan font-size="14" x="200.486" y="-564">, </tspan>T<tspan font-size="9" x="215.986" y="-561">g</tspan><tspan font-size="14" x="220.653" y="-564">, T</tspan><tspan font-size="9" x="236.153" y="-561">b</tspan><tspan font-size="14" x="240.82" y="-564">} </tspan><tspan font-size="14" x="162.653" y="-548">CT = </tspan><tspan font-size="14" x="195.32" y="-548">{Q</tspan><tspan font-size="9" x="212.153" y="-545">A1</tspan><tspan font-size="14" x="223.486" y="-548">, </tspan>Q<tspan font-size="9" x="240.653" y="-545">B1</tspan><tspan font-size="14" x="251.486" y="-548">}</tspan><tspan font-size="14" x="162.653" y="-531">RT = </tspan><tspan font-size="14" x="195.32" y="-531">{Q</tspan><tspan font-size="9" x="212.153" y="-528">C1</tspan><tspan font-size="14" x="222.986" y="-531">, …, </tspan>Q<tspan font-size="9" x="261.153" y="-528">B4</tspan><tspan font-size="14" x="271.986" y="-531">}</tspan><tspan font-size="14" x="162.653" y="-514">extend</tspan><tspan font-size="14" x="203.32" y="-514">= false</tspan></text><rect x="479" y="139" width="137" height="67" fill="#D0CECE"/><text font-family="Times New Roman,Times New Roman_MSFontService,sans-serif" font-weight="400" font-size="14" transform="translate(488.858 153)">I = {<tspan font-size="14" x="26.1667" y="0">T</tspan><tspan font-size="9" x="34.6667" y="3">b</tspan><tspan font-size="14" x="39.3333" y="0">} </tspan><tspan font-size="14" x="0" y="16">CT = </tspan><tspan font-size="14" x="32.6667" y="16">{Q</tspan><tspan font-size="9" x="49.5" y="19">A1</tspan><tspan font-size="14" x="60.8333" y="16">, </tspan>Q<tspan font-size="9" x="78" y="19">B1</tspan><tspan font-size="14" x="88.8333" y="16">, </tspan>Q<tspan font-size="9" x="106" y="19">C1</tspan><tspan font-size="14" x="116.833" y="16">}</tspan><tspan font-size="14" x="0" y="33">RT = </tspan><tspan font-size="14" x="32.6667" y="33">{Q</tspan><tspan font-size="9" x="49.5" y="36">D1</tspan><tspan font-size="14" x="60.8333" y="33">, …, </tspan>Q<tspan font-size="9" x="99" y="36">B4</tspan><tspan font-size="14" x="109.833" y="33">}</tspan><tspan font-size="14" x="0" y="50">extend</tspan><tspan font-size="14" x="40.6667" y="50">= </tspan><tspan font-size="14" x="52" y="50">true</tspan><tspan font-size="21" x="38.8833" y="-101">Job</tspan><tspan font-size="14" x="68.55" y="-97">1</tspan></text><rect x="475.5" y="58.5001" width="146" height="301" stroke="#000000" stroke-width="1.33333" stroke-miterlimit="8" stroke-dasharray="5.33333 4" fill="none"/><rect x="475.5" y="366.5" width="146" height="301" stroke="#000000" stroke-width="1.33333" stroke-miterlimit="8" stroke-dasharray="5.33333 4" fill="none"/><text font-family="Times New Roman,Times New Roman_MSFontService,sans-serif" font-weight="400" font-size="14" transform="translate(488.858 301)">I = {<tspan font-size="14" x="26.1667" y="0">T</tspan><tspan font-size="9" x="34.6667" y="3">r</tspan><tspan font-size="14" x="37.8333" y="0">, T</tspan><tspan font-size="9" x="53.3333" y="3">g</tspan><tspan font-size="14" x="58" y="0">} </tspan><tspan font-size="14" x="0" y="16">CT = </tspan><tspan font-size="14" x="32.6667" y="16">{Q</tspan><tspan font-size="9" x="49.5" y="19">A1</tspan><tspan font-size="14" x="60.8333" y="16">, </tspan>Q<tspan font-size="9" x="78" y="19">B1</tspan><tspan font-size="14" x="88.8333" y="16">, </tspan>Q<tspan font-size="9" x="106" y="19">B2</tspan><tspan font-size="14" x="116.833" y="16">}</tspan><tspan font-size="14" x="0" y="33">RT = </tspan><tspan font-size="14" x="32.6667" y="33">{Q</tspan><tspan font-size="9" x="49.5" y="36">B3</tspan><tspan font-size="14" x="60.3333" y="33">, …, </tspan>Q<tspan font-size="9" x="98.5" y="36">B4</tspan><tspan font-size="14" x="109.333" y="33">}</tspan><tspan font-size="14" x="0" y="50">extend</tspan><tspan font-size="14" x="40.6667" y="50">= </tspan><tspan font-size="14" x="52" y="50">true</tspan></text><rect x="479" y="445" width="137" height="68" fill="#D0CECE"/><text font-family="Times New Roman,Times New Roman_MSFontService,sans-serif" font-weight="400" font-size="14" transform="translate(488.858 459)">I = {<tspan font-size="14" x="26.1667" y="0">T</tspan><tspan font-size="9" x="34.6667" y="3">r</tspan><tspan font-size="14" x="37.8333" y="0">} </tspan><tspan font-size="14" x="0" y="16">CT = </tspan><tspan font-size="14" x="32.6667" y="16">{Q</tspan><tspan font-size="9" x="49.5" y="19">A1</tspan><tspan font-size="14" x="60.8333" y="16">, </tspan>Q<tspan font-size="9" x="78" y="19">B1</tspan><tspan font-size="14" x="88.8333" y="16">, </tspan>Q<tspan font-size="9" x="106" y="19">D3</tspan><tspan font-size="14" x="117.333" y="16">}</tspan><tspan font-size="14" x="0" y="33">RT = </tspan><tspan font-size="14" x="32.6667" y="33">{Q</tspan><tspan font-size="9" x="49.5" y="36">A4</tspan><tspan font-size="14" x="60.8333" y="33">, </tspan>Q<tspan font-size="9" x="78" y="36">B4</tspan><tspan font-size="14" x="88.8333" y="33">}</tspan><tspan font-size="14" x="0" y="50">extend</tspan><tspan font-size="14" x="40.6667" y="50">= </tspan><tspan font-size="14" x="52" y="50">true</tspan></text><rect x="479" y="215" width="137" height="68" fill="#D0CECE"/><text font-family="Times New Roman,Times New Roman_MSFontService,sans-serif" font-weight="400" font-size="14" transform="translate(488.858 229)">I = {<tspan font-size="14" x="26.1667" y="0">T</tspan><tspan font-size="9" x="34.6667" y="3">b</tspan><tspan font-size="14" x="39.3333" y="0">} </tspan><tspan font-size="14" x="0" y="16">CT = </tspan><tspan font-size="14" x="32.6667" y="16">{Q</tspan><tspan font-size="9" x="49.5" y="19">A1</tspan><tspan font-size="14" x="60.8333" y="16">, </tspan>Q<tspan font-size="9" x="78" y="19">B1</tspan><tspan font-size="14" x="88.8333" y="16">, </tspan>Q<tspan font-size="9" x="106" y="19">D1</tspan><tspan font-size="14" x="117.333" y="16">}</tspan><tspan font-size="14" x="0" y="33">RT = </tspan><tspan font-size="14" x="32.6667" y="33">{Q</tspan><tspan font-size="9" x="49.5" y="36">B2</tspan><tspan font-size="14" x="60.3333" y="33">, …, </tspan>Q<tspan font-size="9" x="98.5" y="36">B4</tspan><tspan font-size="14" x="109.333" y="33">}</tspan><tspan font-size="14" x="0" y="50">extend</tspan><tspan font-size="14" x="40.6667" y="50">= </tspan><tspan font-size="14" x="52" y="50">true</tspan></text><rect x="479" y="368" width="137" height="68" fill="#D0CECE"/><text font-family="Times New Roman,Times New Roman_MSFontService,sans-serif" font-weight="400" font-size="14" transform="translate(488.858 382)">I = {<tspan font-size="14" x="26.1667" y="0">T</tspan><tspan font-size="9" x="34.6667" y="3">r</tspan><tspan font-size="14" x="37.8333" y="0">, T</tspan><tspan font-size="9" x="53.3333" y="3">g</tspan><tspan font-size="14" x="58" y="0">} </tspan><tspan font-size="14" x="0" y="16">CT = </tspan><tspan font-size="14" x="32.6667" y="16">{Q</tspan><tspan font-size="9" x="49.5" y="19">A1</tspan><tspan font-size="14" x="60.8333" y="16">, Q</tspan><tspan font-size="9" x="78" y="19">B1</tspan><tspan font-size="14" x="88.8333" y="16">, </tspan>Q<tspan font-size="9" x="106" y="19">B3</tspan><tspan font-size="14" x="116.833" y="16">}</tspan><tspan font-size="14" x="0" y="33">RT = </tspan><tspan font-size="14" x="32.6667" y="33">{Q</tspan><tspan font-size="9" x="49.5" y="36">D3</tspan><tspan font-size="14" x="60.8333" y="33">, </tspan>Q<tspan font-size="9" x="78" y="36">A4</tspan><tspan font-size="14" x="89.3333" y="33">, </tspan>Q<tspan font-size="9" x="106.5" y="36">B4</tspan><tspan font-size="14" x="117.333" y="33">}</tspan><tspan font-size="14" x="0" y="50">extend</tspan><tspan font-size="14" x="40.6667" y="50">= </tspan><tspan font-size="14" x="52" y="50">true</tspan></text><rect x="479" y="522" width="137" height="68" fill="#D0CECE"/><text font-family="Times New Roman,Times New Roman_MSFontService,sans-serif" font-weight="400" font-size="14" transform="translate(488.858 536)">I = {T<tspan font-size="9" x="34.6667" y="3">g</tspan><tspan font-size="14" x="39.3333" y="0">} </tspan><tspan font-size="14" x="0" y="16">CT = </tspan><tspan font-size="14" x="32.6667" y="16">{Q</tspan><tspan font-size="9" x="49.5" y="19">A1</tspan><tspan font-size="14" x="60.8333" y="16">, </tspan>Q<tspan font-size="9" x="78" y="19">B1</tspan><tspan font-size="14" x="88.8333" y="16">, </tspan>Q<tspan font-size="9" x="106" y="19">A4</tspan><tspan font-size="14" x="117.333" y="16">}</tspan><tspan font-size="14" x="0" y="33">RT = </tspan><tspan font-size="14" x="32.6667" y="33">{Q</tspan><tspan font-size="9" x="49.5" y="36">B4</tspan><tspan font-size="14" x="60.3333" y="33">}</tspan><tspan font-size="14" x="0" y="50">extend</tspan><tspan font-size="14" x="40.6667" y="50">= </tspan><tspan font-size="14" x="52" y="50">true</tspan></text><rect x="479" y="598" width="137" height="68" fill="#D0CECE"/><text font-family="Times New Roman,Times New Roman_MSFontService,sans-serif" font-weight="400" font-size="14" transform="translate(488.858 612)">I = {T<tspan font-size="9" x="34.6667" y="3">g</tspan><tspan font-size="14" x="39.3333" y="0">} </tspan><tspan font-size="14" x="0" y="16">CT = </tspan><tspan font-size="14" x="32.6667" y="16">{Q</tspan><tspan font-size="9" x="49.5" y="19">A1</tspan><tspan font-size="14" x="60.8333" y="16">, </tspan>Q<tspan font-size="9" x="78" y="19">B1</tspan><tspan font-size="14" x="88.8333" y="16">, </tspan>Q<tspan font-size="9" x="106" y="19">B4</tspan><tspan font-size="14" x="116.833" y="16">}</tspan><tspan font-size="14" x="0" y="33">RT = {}</tspan><tspan font-size="14" x="0" y="50">extend</tspan><tspan font-size="14" x="40.6667" y="50">= </tspan><tspan font-size="14" x="52" y="50">true</tspan></text><path d="M451.5 95.1667 473.086 95.1668 473.086 95.8335 451.5 95.8334ZM471.753 91.5001 479.753 95.5002 471.753 99.5001Z" fill="#3B3838"/><path d="M451.813 95.3852 477.768 166.08 477.142 166.309 451.187 95.6149ZM480.751 163.564 479.753 172.453 473.241 166.321Z" fill="#3B3838"/><path d="M451.828 95.4398 478.875 242.491 478.219 242.612 451.172 95.5603ZM482.24 240.517 479.753 249.108 474.372 241.964Z" fill="#3B3838"/><path d="M451.831 95.4587 479.256 314.728 478.595 314.81 451.169 95.5414ZM482.729 312.949 479.753 321.384 474.791 313.942Z" fill="#3B3838"/><path d="M451.832 95.4695 479.474 395.751 478.81 395.812 451.168 95.5306ZM483.003 394.086 479.753 402.419 475.037 394.819Z" fill="#3B3838"/><path d="M451.832 95.4756 479.596 472.403 478.931 472.452 451.168 95.5245ZM483.155 470.802 479.753 479.074 475.176 471.39Z" fill="#3B3838"/><path d="M451.833 95.4796 479.677 549.055 479.012 549.096 451.167 95.5205ZM483.255 547.5 479.753 555.73 475.27 547.99Z" fill="#3B3838"/><path d="M451.833 95.4825 479.736 625.712 479.07 625.747 451.167 95.5176ZM483.327 624.186 479.753 632.385 475.338 624.607Z" fill="#3B3838"/><text font-family="Times New Roman,Times New Roman_MSFontService,sans-serif" font-weight="400" font-size="14" transform="translate(650.501 76)">I = {<tspan font-size="14" x="26.1667" y="0">T</tspan><tspan font-size="9" x="34.6667" y="3">r</tspan><tspan font-size="14" x="37.8334" y="0">, </tspan>T<tspan font-size="9" x="53.3334" y="3">g</tspan><tspan font-size="14" x="58" y="0">, </tspan>T<tspan font-size="9" x="73.5" y="3">b</tspan><tspan font-size="14" x="78.1667" y="0">} </tspan><tspan font-size="14" x="0" y="16">CT = </tspan><tspan font-size="14" x="32.6667" y="16">{Q</tspan><tspan font-size="9" x="49.5" y="19">A1</tspan><tspan font-size="14" x="60.8334" y="16">, </tspan>Q<tspan font-size="9" x="78" y="19">B1</tspan><tspan font-size="14" x="88.8334" y="16">}</tspan><tspan font-size="14" x="0" y="33">RT = </tspan><tspan font-size="14" x="32.6667" y="33">{Q</tspan><tspan font-size="9" x="49.5" y="36">C1</tspan><tspan font-size="14" x="60.3334" y="33">, …, </tspan>Q<tspan font-size="9" x="98.5" y="36">B4</tspan><tspan font-size="14" x="109.333" y="33">}</tspan><tspan font-size="14" x="0" y="50">extend</tspan><tspan font-size="14" x="40.6667" y="50">= false</tspan><tspan font-size="21" x="63.3323" y="-24">Job</tspan><tspan font-size="14" x="92.999" y="-20">2</tspan></text><rect x="636.5" y="58.5001" width="203" height="294" stroke="#000000" stroke-width="1.33333" stroke-miterlimit="8" stroke-dasharray="5.33333 4" fill="none"/><rect x="637.5" y="360.5" width="202" height="149" stroke="#000000" stroke-width="1.33333" stroke-miterlimit="8" stroke-dasharray="5.33333 4" fill="none"/><text font-family="Times New Roman,Times New Roman_MSFontService,sans-serif" font-weight="400" font-size="14" transform="translate(650.501 149)">I = {<tspan font-size="14" x="26.1667" y="0">T</tspan><tspan font-size="9" x="34.6667" y="3">r</tspan><tspan font-size="14" x="37.8334" y="0">, T</tspan><tspan font-size="9" x="53.3334" y="3">g</tspan><tspan font-size="14" x="58" y="0">} </tspan><tspan font-size="14" x="0" y="16">CT = </tspan><tspan font-size="14" x="32.6667" y="16">{Q</tspan><tspan font-size="9" x="49.5" y="19">A1</tspan><tspan font-size="14" x="60.8334" y="16">, </tspan>Q<tspan font-size="9" x="78" y="19">B1</tspan><tspan font-size="14" x="88.8334" y="16">, </tspan>Q<tspan font-size="9" x="106" y="19">B2</tspan><tspan font-size="14" x="116.833" y="16">, </tspan>Q<tspan font-size="9" x="134" y="19">B3</tspan><tspan font-size="14" x="144.833" y="16">}</tspan><tspan font-size="14" x="0" y="33">RT = </tspan><tspan font-size="14" x="32.6667" y="33">{Q</tspan><tspan font-size="9" x="49.5" y="36">D3</tspan><tspan font-size="14" x="60.8334" y="33">, …, </tspan>Q<tspan font-size="9" x="99" y="36">B4</tspan><tspan font-size="14" x="109.833" y="33">}</tspan><tspan font-size="14" x="0" y="50">extend</tspan><tspan font-size="14" x="40.6667" y="50">= false</tspan></text><rect x="641" y="282" width="196" height="68" fill="#D0CECE"/><text font-family="Times New Roman,Times New Roman_MSFontService,sans-serif" font-weight="400" font-size="14" transform="translate(650.8 296)">I = {T<tspan font-size="9" x="34.6667" y="3">g</tspan><tspan font-size="14" x="39.3334" y="0">} </tspan><tspan font-size="14" x="0" y="16">CT = </tspan><tspan font-size="14" x="32.6667" y="16">{Q</tspan><tspan font-size="9" x="49.5" y="19">A1</tspan><tspan font-size="14" x="60.8334" y="16">, </tspan>Q<tspan font-size="9" x="78" y="19">B1</tspan><tspan font-size="14" x="88.8334" y="16">, </tspan>Q<tspan font-size="9" x="106" y="19">B2</tspan><tspan font-size="14" x="116.833" y="16">, </tspan>Q<tspan font-size="9" x="134" y="19">B3</tspan><tspan font-size="14" x="144.833" y="16">, </tspan>Q<tspan font-size="9" x="162" y="19">A4</tspan><tspan font-size="14" x="173.333" y="16">}</tspan><tspan font-size="14" x="0" y="33">RT = </tspan><tspan font-size="14" x="32.6667" y="33">{Q</tspan><tspan font-size="9" x="49.5" y="36">B4</tspan><tspan font-size="14" x="60.3334" y="33">}</tspan><tspan font-size="14" x="0" y="50">extend</tspan><tspan font-size="14" x="40.6667" y="50">= </tspan><tspan font-size="14" x="52" y="50">true</tspan></text><rect x="641" y="209" width="196" height="67" fill="#D0CECE"/><text font-family="Times New Roman,Times New Roman_MSFontService,sans-serif" font-weight="400" font-size="14" transform="translate(650.799 223)">I = {<tspan font-size="14" x="26.1666" y="0">T</tspan><tspan font-size="9" x="34.6666" y="3">r</tspan><tspan font-size="14" x="37.8333" y="0">} </tspan><tspan font-size="14" x="0" y="16">CT = </tspan><tspan font-size="14" x="32.6666" y="16">{Q</tspan><tspan font-size="9" x="49.5" y="19">A1</tspan><tspan font-size="14" x="60.8333" y="16">, </tspan>Q<tspan font-size="9" x="78" y="19">B1</tspan><tspan font-size="14" x="88.8333" y="16">, </tspan>Q<tspan font-size="9" x="106" y="19">B2</tspan><tspan font-size="14" x="116.833" y="16">, </tspan>Q<tspan font-size="9" x="134" y="19">B3</tspan><tspan font-size="14" x="144.833" y="16">, </tspan>Q<tspan font-size="9" x="162" y="19">D3</tspan><tspan font-size="14" x="173.333" y="16">}</tspan><tspan font-size="14" x="0" y="33">RT = </tspan><tspan font-size="14" x="32.6666" y="33">{Q</tspan><tspan font-size="9" x="49.5" y="36">A4</tspan><tspan font-size="14" x="60.8333" y="33">, </tspan>Q<tspan font-size="9" x="78" y="36">B4</tspan><tspan font-size="14" x="88.8333" y="33">}</tspan><tspan font-size="14" x="0" y="50">extend</tspan><tspan font-size="14" x="40.6666" y="50">= </tspan><tspan font-size="14" x="52" y="50">true</tspan></text><rect x="641" y="364" width="196" height="67" fill="#D0CECE"/><text font-family="Times New Roman,Times New Roman_MSFontService,sans-serif" font-weight="400" font-size="14" transform="translate(650.8 378)">I = {T<tspan font-size="9" x="34.6667" y="3">g</tspan><tspan font-size="14" x="39.3333" y="0">} </tspan><tspan font-size="14" x="0" y="16">CT = </tspan><tspan font-size="14" x="32.6667" y="16">{Q</tspan><tspan font-size="9" x="49.5" y="19">A1</tspan><tspan font-size="14" x="60.8333" y="16">, Q</tspan><tspan font-size="9" x="78" y="19">B1</tspan><tspan font-size="14" x="88.8333" y="16">, </tspan>Q<tspan font-size="9" x="106" y="19">B2</tspan><tspan font-size="14" x="116.833" y="16">, </tspan>Q<tspan font-size="9" x="134" y="19">B3</tspan><tspan font-size="14" x="144.833" y="16">, </tspan>Q<tspan font-size="9" x="162" y="19">A4</tspan><tspan font-size="14" x="173.333" y="16">}</tspan><tspan font-size="14" x="0" y="33">RT = {B4}</tspan><tspan font-size="14" x="0" y="50">extend</tspan><tspan font-size="14" x="40.6667" y="50">= </tspan><tspan font-size="14" x="52" y="50">true</tspan></text><rect x="641" y="438" width="196" height="68" fill="#D0CECE"/><text font-family="Times New Roman,Times New Roman_MSFontService,sans-serif" font-weight="400" font-size="14" transform="translate(650.8 452)">I = {T<tspan font-size="9" x="34.6666" y="3">g</tspan><tspan font-size="14" x="39.3333" y="0">} </tspan><tspan font-size="14" x="0" y="16">CT = </tspan><tspan font-size="14" x="32.6666" y="16">{Q</tspan><tspan font-size="9" x="49.5" y="19">A1</tspan><tspan font-size="14" x="60.8333" y="16">, </tspan>Q<tspan font-size="9" x="78" y="19">B1</tspan><tspan font-size="14" x="88.8333" y="16">, </tspan>Q<tspan font-size="9" x="106" y="19">B2</tspan><tspan font-size="14" x="116.833" y="16">, </tspan>Q<tspan font-size="9" x="134" y="19">B3</tspan><tspan font-size="14" x="144.833" y="16">, </tspan>Q<tspan font-size="9" x="162" y="19">B4</tspan><tspan font-size="14" x="172.833" y="16">}</tspan><tspan font-size="14" x="0" y="33">RT = {}</tspan><tspan font-size="14" x="0" y="50">extend</tspan><tspan font-size="14" x="40.6666" y="50">= </tspan><tspan font-size="14" x="52" y="50">true</tspan></text><path d="M0.328822-0.054655 24.5591 145.722 23.9014 145.832-0.328822 0.054655ZM27.9575 143.806 25.3234 152.354 20.0658 145.118Z" fill="#262626" transform="matrix(1 0 0 -1 616.5 321.854)"/><path d="M0.317007-0.103043 23.8776 72.38 23.2436 72.5861-0.317007 0.103043ZM26.9525 69.9785 25.6214 78.8232 19.3443 72.4516Z" fill="#262626" transform="matrix(1 0 0 -1 616.5 322.323)"/><path d="M0.0674338-0.326441 19.1601 3.61759 19.0253 4.27047-0.0674338 0.326441ZM18.5961-0.243 25.6215 5.2927 16.9777 7.59159Z" fill="#262626" transform="matrix(1 0 0 -1 616.5 321.793)"/><path d="M616.816 321.394 640.312 391.237 639.68 391.449 616.184 321.606ZM643.362 388.804 642.122 397.662 635.78 391.354Z" fill="#262626"/><path d="M616.829 321.444 641.33 465.104 640.672 465.216 616.171 321.556ZM644.72 463.174 642.122 471.732 636.834 464.519Z" fill="#262626"/><text font-family="Times New Roman,Times New Roman_MSFontService,sans-serif" font-weight="400" font-size="14" transform="translate(863.746 76)">I = {<tspan font-size="14" x="26.1667" y="0">T</tspan><tspan font-size="9" x="34.6667" y="3">r</tspan><tspan font-size="14" x="37.8334" y="0">, </tspan>T<tspan font-size="9" x="53.3334" y="3">g</tspan><tspan font-size="14" x="58" y="0">, </tspan>T<tspan font-size="9" x="73.5" y="3">b</tspan><tspan font-size="14" x="78.1667" y="0">} </tspan><tspan font-size="14" x="0" y="16">CT = </tspan><tspan font-size="14" x="32.6667" y="16">{Q</tspan><tspan font-size="9" x="49.5" y="19">A1</tspan><tspan font-size="14" x="60.8334" y="16">, </tspan>Q<tspan font-size="9" x="78" y="19">B1</tspan><tspan font-size="14" x="88.8334" y="16">}</tspan><tspan font-size="14" x="0" y="33">RT = </tspan><tspan font-size="14" x="32.6667" y="33">{Q</tspan><tspan font-size="9" x="49.5" y="36">C1</tspan><tspan font-size="14" x="60.3334" y="33">, …, </tspan>Q<tspan font-size="9" x="98.5" y="36">B4</tspan><tspan font-size="14" x="109.333" y="33">}</tspan><tspan font-size="14" x="0" y="50">extend</tspan><tspan font-size="14" x="40.6667" y="50">= false</tspan><tspan font-size="21" x="53.5732" y="-24">Job</tspan><tspan font-size="14" x="83.2399" y="-20">3</tspan></text><rect x="858.5" y="58.5001" width="160" height="160" stroke="#000000" stroke-width="1.33333" stroke-miterlimit="8" stroke-dasharray="5.33333 4" fill="none"/><text font-family="Times New Roman,Times New Roman_MSFontService,sans-serif" font-weight="400" font-size="14" transform="translate(863.861 159)">I = {<tspan font-size="14" x="26.1667" y="0">T</tspan><tspan font-size="9" x="34.6667" y="3">r</tspan><tspan font-size="14" x="37.8334" y="0">, T</tspan><tspan font-size="9" x="53.3334" y="3">g</tspan><tspan font-size="14" x="58" y="0">} </tspan><tspan font-size="14" x="0" y="16">CT = </tspan><tspan font-size="14" x="32.6667" y="16">{Q</tspan><tspan font-size="9" x="49.5" y="19">A1</tspan><tspan font-size="14" x="60.8334" y="16">, </tspan>Q<tspan font-size="9" x="78" y="19">B1</tspan><tspan font-size="14" x="88.8334" y="16">, </tspan>Q<tspan font-size="9" x="106" y="19">B2</tspan><tspan font-size="14" x="116.833" y="16">, </tspan>Q<tspan font-size="9" x="134" y="19">B3</tspan><tspan font-size="14" x="144.833" y="16">}</tspan><tspan font-size="14" x="0" y="33">RT = </tspan><tspan font-size="14" x="32.6667" y="33">{Q</tspan><tspan font-size="9" x="49.5" y="36">D3</tspan><tspan font-size="14" x="60.8334" y="33">, …, </tspan>Q<tspan font-size="9" x="99" y="36">B4</tspan><tspan font-size="14" x="109.833" y="33">}</tspan><tspan font-size="14" x="0" y="50">extend</tspan><tspan font-size="14" x="40.6667" y="50">= false</tspan><tspan font-style="italic" font-size="14" x="-434.163" y="-83">N1</tspan><tspan font-style="italic" font-size="14" x="-434.163" y="-14">N2</tspan><tspan font-style="italic" font-size="14" x="-434.163" y="56">N3</tspan><tspan font-style="italic" font-size="14" x="-434.163" y="125">N4</tspan><tspan font-style="italic" font-size="14" x="-434.163" y="203">N5</tspan><tspan font-style="italic" font-size="14" x="-434.163" y="272">N6</tspan><tspan font-style="italic" font-size="14" x="-434.163" y="341">N7</tspan><tspan font-style="italic" font-size="14" x="-434.163" y="409">N8</tspan><tspan font-style="italic" font-size="14" x="-434.163" y="481">N9</tspan><tspan font-style="italic" font-size="14" x="-269.59" y="-83">N1</tspan><tspan font-style="italic" font-size="14" x="-273.936" y="-6">N10</tspan><tspan font-style="italic" font-size="14" x="-274.203" y="70">N11</tspan><tspan font-style="italic" font-size="14" x="-274.203" y="142">N12</tspan><tspan font-style="italic" font-size="14" x="-274.203" y="223">N13</tspan><tspan font-style="italic" font-size="14" x="-274.203" y="300">N14</tspan><tspan font-style="italic" font-size="14" x="-274.203" y="377">N15</tspan><tspan font-style="italic" font-size="14" x="-274.203" y="453">N16</tspan><tspan font-style="italic" font-size="14" x="-53.0397" y="-83">N1</tspan><tspan font-style="italic" font-size="14" x="-53.0397" y="-10">N12</tspan><tspan font-style="italic" font-size="14" x="-53.0397" y="64">N17</tspan><tspan font-style="italic" font-size="14" x="-53.0397" y="137">N18</tspan><tspan font-style="italic" font-size="14" x="-53.0397" y="219">N19</tspan><tspan font-style="italic" font-size="14" x="-53.0397" y="293">N20</tspan><tspan font-style="italic" font-size="14" x="127.565" y="-83">N1</tspan><tspan font-style="italic" font-size="14" x="127.565" y="0">N12</tspan></text></g></svg>