<svg width="937" height="576" xmlns="http://www.w3.org/2000/svg" xmlns:xlink="http://www.w3.org/1999/xlink" overflow="hidden"><defs><clipPath id="clip0"><rect x="1522" y="1767" width="937" height="576"/></clipPath></defs><g clip-path="url(#clip0)" transform="translate(-1522 -1767)"><path d="M1592 1859.5C1592 1853.15 1597.15 1848 1603.5 1848 1609.85 1848 1615 1853.15 1615 1859.5 1615 1865.85 1609.85 1871 1603.5 1871 1597.15 1871 1592 1865.85 1592 1859.5Z" fill="#767171" fill-rule="evenodd"/><path d="M1570 1923.5C1570 1917.15 1575.15 1912 1581.5 1912 1587.85 1912 1593 1917.15 1593 1923.5 1593 1929.85 1587.85 1935 1581.5 1935 1575.15 1935 1570 1929.85 1570 1923.5Z" fill="#767171" fill-rule="evenodd"/><path d="M1714 2126C1714 2119.37 1719.15 2114 1725.5 2114 1731.85 2114 1737 2119.37 1737 2126 1737 2132.63 1731.85 2138 1725.5 2138 1719.15 2138 1714 2132.63 1714 2126Z" fill="#767171" fill-rule="evenodd"/><path d="M1714 2206.5C1714 2200.15 1719.15 2195 1725.5 2195 1731.85 2195 1737 2200.15 1737 2206.5 1737 2212.85 1731.85 2218 1725.5 2218 1719.15 2218 1714 2212.85 1714 2206.5Z" fill="#767171" fill-rule="evenodd"/><path d="M1823 1858.5C1823 1852.15 1828.15 1847 1834.5 1847 1840.85 1847 1846 1852.15 1846 1858.5 1846 1864.85 1840.85 1870 1834.5 1870 1828.15 1870 1823 1864.85 1823 1858.5Z" fill="#767171" fill-rule="evenodd"/><path d="M1841 1895.5C1841 1889.15 1846.15 1884 1852.5 1884 1858.85 1884 1864 1889.15 1864 1895.5 1864 1901.85 1858.85 1907 1852.5 1907 1846.15 1907 1841 1901.85 1841 1895.5Z" fill="#767171" fill-rule="evenodd"/><path d="M1612.07 1867.6 1644.93 1955.4 1642.79 1956.2 1609.93 1868.4ZM1649.29 1934.84 1644.62 1957.83 1626 1943.56C1625.5 1943.17 1625.41 1942.45 1625.79 1941.95 1626.18 1941.45 1626.9 1941.35 1627.4 1941.74L1644.56 1954.89 1642.74 1955.57 1647.04 1934.39C1647.17 1933.77 1647.77 1933.37 1648.39 1933.49 1649.01 1933.62 1649.41 1934.22 1649.29 1934.84Z" fill="#AFABAB"/><path d="M1655.06 2062.56 1714.05 2204.21 1711.94 2205.09 1652.94 2063.44ZM1717.65 2183.51 1713.83 2206.65 1694.71 2193.07C1694.19 2192.7 1694.07 2191.99 1694.43 2191.47 1694.8 2190.96 1695.52 2190.83 1696.03 2191.2L1713.66 2203.72 1711.86 2204.47 1715.39 2183.14C1715.5 2182.51 1716.09 2182.09 1716.71 2182.19 1717.34 2182.3 1717.76 2182.89 1717.65 2183.51Z" fill="#AFABAB"/><path d="M1.0746-0.397715 93.3635 248.96 91.2143 249.755-1.0746 0.397715ZM97.7924 228.416 93.0382 251.382 74.4779 237.045C73.9771 236.658 73.8848 235.939 74.2716 235.438 74.6585 234.937 75.3781 234.845 75.8789 235.232L92.9883 248.448 91.1658 249.122 95.5483 227.952C95.6766 227.332 96.2829 226.934 96.9026 227.062 97.5223 227.19 97.9206 227.797 97.7924 228.416Z" fill="#AFABAB" transform="matrix(1 0 0 -1 1733 2117.37)"/><path d="M1.07256-0.403178 110.851 291.636 108.706 292.442-1.07256 0.403178ZM115.176 271.071 110.539 294.061 91.9057 279.819C91.4029 279.435 91.3069 278.715 91.6912 278.213 92.0755 277.71 92.7946 277.614 93.2973 277.998L110.474 291.127 108.655 291.811 112.929 270.618C113.055 269.998 113.659 269.597 114.279 269.722 114.9 269.847 115.301 270.451 115.176 271.071Z" fill="#AFABAB" transform="matrix(1 0 0 -1 1733 2198.05)"/><path d="M0 0 0.000360892 449.093" stroke="#D0CECE" stroke-width="4.58333" stroke-miterlimit="8" stroke-dasharray="18.3333 13.75" fill="none" fill-rule="evenodd" transform="matrix(1 0 0 -1 2364.5 2244.59)"/><path d="M1555.5 2095.5 2364.55 2095.5" stroke="#D0CECE" stroke-width="4.58333" stroke-miterlimit="8" stroke-dasharray="18.3333 13.75" fill="none" fill-rule="evenodd"/><path d="M1554.5 2244.5 2364.69 2244.5" stroke="#D0CECE" stroke-width="4.58333" stroke-miterlimit="8" stroke-dasharray="18.3333 13.75" fill="none" fill-rule="evenodd"/><path d="M1555.5 1796.5 2364.55 1796.5" stroke="#D0CECE" stroke-width="4.58333" stroke-miterlimit="8" stroke-dasharray="18.3333 13.75" fill="none" fill-rule="evenodd"/><path d="M1555.5 1945.5 2364.55 1945.5" stroke="#D0CECE" stroke-width="4.58333" stroke-miterlimit="8" stroke-dasharray="18.3333 13.75" fill="none" fill-rule="evenodd"/><path d="M0 0 0.000360892 449.093" stroke="#D0CECE" stroke-width="4.58333" stroke-miterlimit="8" stroke-dasharray="18.3333 13.75" fill="none" fill-rule="evenodd" transform="matrix(1 0 0 -1 1556.5 2245.59)"/><path d="M0 0 0.000360892 449.093" stroke="#D0CECE" stroke-width="4.58333" stroke-miterlimit="8" stroke-dasharray="18.3333 13.75" fill="none" fill-rule="evenodd" transform="matrix(1 0 0 -1 1671.5 2245.59)"/><path d="M0 0 0.000360892 449.093" stroke="#D0CECE" stroke-width="4.58333" stroke-miterlimit="8" stroke-dasharray="18.3333 13.75" fill="none" fill-rule="evenodd" transform="matrix(1 0 0 -1 1787.5 2245.59)"/><path d="M0 0 0.000360892 449.093" stroke="#D0CECE" stroke-width="4.58333" stroke-miterlimit="8" stroke-dasharray="18.3333 13.75" fill="none" fill-rule="evenodd" transform="matrix(1 0 0 -1 1902.5 2245.59)"/><path d="M0 0 0.000360892 449.093" stroke="#D0CECE" stroke-width="4.58333" stroke-miterlimit="8" stroke-dasharray="18.3333 13.75" fill="none" fill-rule="evenodd" transform="matrix(1 0 0 -1 2018.5 2245.59)"/><path d="M0 0 0.000360892 449.093" stroke="#D0CECE" stroke-width="4.58333" stroke-miterlimit="8" stroke-dasharray="18.3333 13.75" fill="none" fill-rule="evenodd" transform="matrix(1 0 0 -1 2133.5 2246.59)"/><path d="M0 0 0.000360892 449.093" stroke="#D0CECE" stroke-width="4.58333" stroke-miterlimit="8" stroke-dasharray="18.3333 13.75" fill="none" fill-rule="evenodd" transform="matrix(1 0 0 -1 2249.5 2245.59)"/><path d="M1544 1787.85 2385.64 1787.85 2385.64 1790.15 1544 1790.15ZM2358.72 1771.97 2387.91 1789 2358.72 1806.03C2358.17 1806.35 2357.47 1806.17 2357.15 1805.62 2356.83 1805.07 2357.01 1804.37 2357.56 1804.05L2385.06 1788.01 2385.06 1789.99 2357.56 1773.95C2357.01 1773.63 2356.83 1772.93 2357.15 1772.38 2357.47 1771.83 2358.17 1771.65 2358.72 1771.97Z"/><path d="M1545.15 1789 1545.15 2275.33 1542.85 2275.33 1542.85 1789ZM1561.03 2248.41 1544 2277.61 1526.97 2248.41C1526.65 2247.87 1526.83 2247.17 1527.38 2246.85 1527.93 2246.53 1528.63 2246.71 1528.95 2247.26L1544.99 2274.76 1543.01 2274.76 1559.05 2247.26C1559.37 2246.71 1560.07 2246.53 1560.62 2246.85 1561.17 2247.17 1561.35 2247.87 1561.03 2248.41Z"/><text font-family="Times New Roman,Times New Roman_MSFontService,sans-serif" font-style="italic" font-weight="400" font-size="55" transform="matrix(1 0 0 1 2372.86 1840)">f<tspan font-size="37" x="15.4688" y="-17">tm</tspan><tspan font-size="55" x="-815.254" y="457">f</tspan><tspan font-size="37" x="-799.785" y="440">sp</tspan></text><path d="M1959 1856.5C1959 1850.15 1964.37 1845 1971 1845 1977.63 1845 1983 1850.15 1983 1856.5 1983 1862.85 1977.63 1868 1971 1868 1964.37 1868 1959 1862.85 1959 1856.5Z" fill="#767171" fill-rule="evenodd"/><path d="M1939 2034.5C1939 2028.15 1944.15 2023 1950.5 2023 1956.85 2023 1962 2028.15 1962 2034.5 1962 2040.85 1956.85 2046 1950.5 2046 1944.15 2046 1939 2040.85 1939 2034.5Z" fill="#767171" fill-rule="evenodd"/><path d="M2187 2126C2187 2119.37 2192.15 2114 2198.5 2114 2204.85 2114 2210 2119.37 2210 2126 2210 2132.63 2204.85 2138 2198.5 2138 2192.15 2138 2187 2132.63 2187 2126Z" fill="#767171" fill-rule="evenodd"/><path d="M2204 2169.5C2204 2163.15 2209.15 2158 2215.5 2158 2221.85 2158 2227 2163.15 2227 2169.5 2227 2175.85 2221.85 2181 2215.5 2181 2209.15 2181 2204 2175.85 2204 2169.5Z" fill="#767171" fill-rule="evenodd"/><path d="M2304 1839C2304 1832.37 2309.15 1827 2315.5 1827 2321.85 1827 2327 1832.37 2327 1839 2327 1845.63 2321.85 1851 2315.5 1851 2309.15 1851 2304 1845.63 2304 1839Z" fill="#767171" fill-rule="evenodd"/><path d="M2314 1902.5C2314 1896.15 2319.15 1891 2325.5 1891 2331.85 1891 2337 1896.15 2337 1902.5 2337 1908.85 2331.85 1914 2325.5 1914 2319.15 1914 2314 1908.85 2314 1902.5Z" fill="#767171" fill-rule="evenodd"/><path d="M2086.82 2010.2 2189.45 2115.91 2187.8 2117.51 2085.18 2011.8ZM2185.2 2095.33 2190.13 2118.26 2167.36 2112.65C2166.74 2112.5 2166.37 2111.88 2166.52 2111.26 2166.67 2110.65 2167.29 2110.27 2167.91 2110.43L2188.9 2115.6 2187.5 2116.95 2182.95 2095.82C2182.82 2095.2 2183.22 2094.59 2183.83 2094.45 2184.45 2094.32 2185.06 2094.72 2185.2 2095.33Z" fill="#AFABAB"/><path d="M1959.82 2042.2 2083.54 2167.76 2081.91 2169.37 1958.18 2043.8ZM2079.14 2147.21 2084.25 2170.1 2061.43 2164.66C2060.82 2164.51 2060.44 2163.9 2060.58 2163.28 2060.73 2162.67 2061.35 2162.29 2061.96 2162.43L2082.99 2167.45 2081.61 2168.81 2076.9 2147.71C2076.77 2147.09 2077.15 2146.48 2077.77 2146.34 2078.39 2146.21 2079 2146.6 2079.14 2147.21Z" fill="#AFABAB"/><path d="M1.07446-0.398091 100.624 268.288 98.475 269.084-1.07446 0.398091ZM105.046 247.745 100.3 270.712 81.7348 256.382C81.2339 255.995 81.1412 255.275 81.5279 254.774 81.9146 254.274 82.6342 254.181 83.1351 254.568L100.249 267.778 98.4269 268.453 102.802 247.281C102.93 246.661 103.536 246.263 104.156 246.391 104.776 246.519 105.174 247.125 105.046 247.745Z" fill="#AFABAB" transform="matrix(1 0 0 -1 2207 2117.71)"/><path d="M1.0729-0.40228 94.5045 248.783 92.3587 249.588-1.0729 0.40228ZM98.846 228.221 94.1895 251.207 75.5684 236.949C75.066 236.564 74.9705 235.845 75.3553 235.342 75.74 234.84 76.4592 234.744 76.9616 235.129L94.1271 248.273 92.3075 248.955 96.5999 227.766C96.7256 227.146 97.3302 226.745 97.9504 226.87 98.5707 226.996 98.9716 227.601 98.846 228.221Z" fill="#AFABAB" transform="matrix(1 0 0 -1 2223 2161.2)"/><path d="M0.0171008-1.14571 111.165 0.513287 111.13 2.8047-0.0171008 1.14571ZM93.609-11.0342 113.309 1.69126 93.2379 13.8231C92.6964 14.1504 91.9919 13.9767 91.6646 13.4352 91.3372 12.8936 91.5109 12.1892 92.0525 11.8618L110.555 0.678372 110.526 2.62148 92.3655-9.10919C91.8339-9.45255 91.6814-10.1618 92.0247-10.6934 92.3681-11.225 93.0774-11.3775 93.609-11.0342Z" fill="#AFABAB" transform="matrix(1 0 0 -1 1846 1858.69)"/><path d="M1860.95 1903.36 1941.67 2023.7 1939.77 2024.97 1859.05 1904.64ZM1941.17 2002.69 1941.93 2026.13 1920.52 2016.54C1919.95 2016.28 1919.69 2015.6 1919.95 2015.03 1920.21 2014.45 1920.88 2014.19 1921.46 2014.45L1941.19 2023.29 1939.58 2024.37 1938.88 2002.77C1938.86 2002.13 1939.35 2001.6 1939.99 2001.58 1940.62 2001.56 1941.15 2002.06 1941.17 2002.69Z" fill="#AFABAB"/><path d="M2066 2002.5C2066 1996.15 2071.37 1991 2078 1991 2084.63 1991 2090 1996.15 2090 2002.5 2090 2008.85 2084.63 2014 2078 2014 2071.37 2014 2066 2008.85 2066 2002.5Z" fill="#767171" fill-rule="evenodd"/><path d="M2084 2169.5C2084 2163.15 2089.15 2158 2095.5 2158 2101.85 2158 2107 2163.15 2107 2169.5 2107 2175.85 2101.85 2181 2095.5 2181 2089.15 2181 2084 2175.85 2084 2169.5Z" fill="#767171" fill-rule="evenodd"/><path d="M1979.94 1864.34 2069.35 1992.05 2067.47 1993.37 1978.06 1865.66ZM2068.43 1971.06 2069.65 1994.48 2048.06 1985.32C2047.48 1985.07 2047.21 1984.4 2047.46 1983.82 2047.7 1983.23 2048.38 1982.96 2048.96 1983.21L2068.86 1991.66 2067.27 1992.77 2066.14 1971.18C2066.11 1970.55 2066.59 1970.01 2067.23 1969.98 2067.86 1969.94 2068.4 1970.43 2068.43 1971.06Z" fill="#AFABAB"/><path d="M2107 2168.85 2201.68 2168.85 2201.68 2171.15 2107 2171.15ZM2183.95 2157.57 2203.84 2170 2183.95 2182.43C2183.42 2182.77 2182.71 2182.6 2182.37 2182.07 2182.04 2181.53 2182.2 2180.82 2182.74 2180.49L2201.07 2169.03 2201.07 2170.97 2182.74 2159.51C2182.2 2159.18 2182.04 2158.47 2182.38 2157.93 2182.71 2157.4 2183.42 2157.23 2183.95 2157.57Z" fill="#AFABAB"/><path d="M1642 1965.5C1642 1959.15 1647.15 1954 1653.5 1954 1659.85 1954 1665 1959.15 1665 1965.5 1665 1971.85 1659.85 1977 1653.5 1977 1647.15 1977 1642 1971.85 1642 1965.5Z" fill="#767171" fill-rule="evenodd"/><path d="M1634 2054.5C1634 2048.15 1639.15 2043 1645.5 2043 1651.85 2043 1657 2048.15 1657 2054.5 1657 2060.85 1651.85 2066 1645.5 2066 1639.15 2066 1634 2060.85 1634 2054.5Z" fill="#767171" fill-rule="evenodd"/><path d="M1654.06 1976.57 1713.76 2123.25 1711.64 2124.12 1651.94 1977.43ZM1717.53 2102.58 1713.52 2125.69 1694.51 2111.95C1693.99 2111.58 1693.88 2110.87 1694.25 2110.35 1694.62 2109.84 1695.34 2109.73 1695.85 2110.1L1713.37 2122.76 1711.57 2123.49 1715.28 2102.19C1715.38 2101.57 1715.98 2101.15 1716.6 2101.26 1717.22 2101.37 1717.64 2101.96 1717.53 2102.58Z" fill="#AFABAB"/><path d="M1591.06 1931.56 1638.09 2044.23 1635.97 2045.11 1588.94 1932.44ZM1641.67 2023.52 1637.86 2046.67 1618.73 2033.1C1618.22 2032.73 1618.09 2032.02 1618.46 2031.5 1618.83 2030.99 1619.54 2030.86 1620.06 2031.23L1637.69 2043.74 1635.9 2044.48 1639.41 2023.15C1639.52 2022.53 1640.11 2022.1 1640.73 2022.21 1641.35 2022.31 1641.78 2022.9 1641.67 2023.52Z" fill="#AFABAB"/><path d="M1534.5 2011.5C1534.5 1886.13 1618.45 1784.5 1722 1784.5 1825.55 1784.5 1909.5 1886.13 1909.5 2011.5 1909.5 2136.87 1825.55 2238.5 1722 2238.5 1618.45 2238.5 1534.5 2136.87 1534.5 2011.5Z" stroke="#FF0000" stroke-width="6.875" stroke-miterlimit="8" stroke-dasharray="6.875 6.875" fill="none" fill-rule="evenodd"/></g></svg>