<svg width="888" height="576" xmlns="http://www.w3.org/2000/svg" xmlns:xlink="http://www.w3.org/1999/xlink" overflow="hidden"><defs><clipPath id="clip0"><rect x="373" y="1069" width="888" height="576"/></clipPath></defs><g clip-path="url(#clip0)" transform="translate(-373 -1069)"><path d="M649.5 1461C649.5 1423.17 732.103 1392.5 834 1392.5 935.896 1392.5 1018.5 1423.17 1018.5 1461 1018.5 1498.83 935.896 1529.5 834 1529.5 732.103 1529.5 649.5 1498.83 649.5 1461Z" stroke="#FF0000" stroke-width="6.875" stroke-linejoin="round" stroke-miterlimit="10" stroke-dasharray="6.875 6.875" fill="none" fill-rule="evenodd"/><path d="M0 0 0.000360892 449.093" stroke="#D0CECE" stroke-width="4.58333" stroke-miterlimit="8" stroke-dasharray="18.3333 13.75" fill="none" fill-rule="evenodd" transform="matrix(1 0 0 -1 1215.5 1546.59)"/><path d="M406.5 1397.5 1215.55 1397.5" stroke="#D0CECE" stroke-width="4.58333" stroke-miterlimit="8" stroke-dasharray="18.3333 13.75" fill="none" fill-rule="evenodd"/><path d="M405.5 1546.5 1215.69 1546.5" stroke="#D0CECE" stroke-width="4.58333" stroke-miterlimit="8" stroke-dasharray="18.3333 13.75" fill="none" fill-rule="evenodd"/><path d="M406.5 1098.5 1215.55 1098.5" stroke="#D0CECE" stroke-width="4.58333" stroke-miterlimit="8" stroke-dasharray="18.3333 13.75" fill="none" fill-rule="evenodd"/><path d="M406.5 1247.5 1215.55 1247.5" stroke="#D0CECE" stroke-width="4.58333" stroke-miterlimit="8" stroke-dasharray="18.3333 13.75" fill="none" fill-rule="evenodd"/><path d="M0 0 0.000360892 449.093" stroke="#D0CECE" stroke-width="4.58333" stroke-miterlimit="8" stroke-dasharray="18.3333 13.75" fill="none" fill-rule="evenodd" transform="matrix(1 0 0 -1 407.5 1547.59)"/><path d="M0 0 0.000360892 449.093" stroke="#D0CECE" stroke-width="4.58333" stroke-miterlimit="8" stroke-dasharray="18.3333 13.75" fill="none" fill-rule="evenodd" transform="matrix(1 0 0 -1 522.5 1547.59)"/><path d="M0 0 0.000360892 449.093" stroke="#D0CECE" stroke-width="4.58333" stroke-miterlimit="8" stroke-dasharray="18.3333 13.75" fill="none" fill-rule="evenodd" transform="matrix(1 0 0 -1 638.5 1547.59)"/><path d="M0 0 0.000360892 449.093" stroke="#D0CECE" stroke-width="4.58333" stroke-miterlimit="8" stroke-dasharray="18.3333 13.75" fill="none" fill-rule="evenodd" transform="matrix(1 0 0 -1 753.5 1547.59)"/><path d="M0 0 0.000360892 449.093" stroke="#D0CECE" stroke-width="4.58333" stroke-miterlimit="8" stroke-dasharray="18.3333 13.75" fill="none" fill-rule="evenodd" transform="matrix(1 0 0 -1 869.5 1547.59)"/><path d="M0 0 0.000360892 449.093" stroke="#D0CECE" stroke-width="4.58333" stroke-miterlimit="8" stroke-dasharray="18.3333 13.75" fill="none" fill-rule="evenodd" transform="matrix(1 0 0 -1 984.5 1548.59)"/><path d="M0 0 0.000360892 449.093" stroke="#D0CECE" stroke-width="4.58333" stroke-miterlimit="8" stroke-dasharray="18.3333 13.75" fill="none" fill-rule="evenodd" transform="matrix(1 0 0 -1 1100.5 1547.59)"/><path d="M460 1152.5C460 1146.15 465.149 1141 471.5 1141 477.851 1141 483 1146.15 483 1152.5 483 1158.85 477.851 1164 471.5 1164 465.149 1164 460 1158.85 460 1152.5Z" fill="#767171" fill-rule="evenodd"/><path d="M584 1266.5C584 1260.15 589.149 1255 595.5 1255 601.851 1255 607 1260.15 607 1266.5 607 1272.85 601.851 1278 595.5 1278 589.149 1278 584 1272.85 584 1266.5Z" fill="#767171" fill-rule="evenodd"/><path d="M713 1152.5C713 1146.15 718.149 1141 724.5 1141 730.851 1141 736 1146.15 736 1152.5 736 1158.85 730.851 1164 724.5 1164 718.149 1164 713 1158.85 713 1152.5Z" fill="#767171" fill-rule="evenodd"/><path d="M828 1152.5C828 1146.15 833.149 1141 839.5 1141 845.851 1141 851 1146.15 851 1152.5 851 1158.85 845.851 1164 839.5 1164 833.149 1164 828 1158.85 828 1152.5Z" fill="#767171" fill-rule="evenodd"/><path d="M938 1152.5C938 1146.15 943.149 1141 949.5 1141 955.851 1141 961 1146.15 961 1152.5 961 1158.85 955.851 1164 949.5 1164 943.149 1164 938 1158.85 938 1152.5Z" fill="#767171" fill-rule="evenodd"/><path d="M1045 1265.5C1045 1259.15 1050.15 1254 1056.5 1254 1062.85 1254 1068 1259.15 1068 1265.5 1068 1271.85 1062.85 1277 1056.5 1277 1050.15 1277 1045 1271.85 1045 1265.5Z" fill="#767171" fill-rule="evenodd"/><path d="M1160 1152.5C1160 1146.15 1165.15 1141 1171.5 1141 1177.85 1141 1183 1146.15 1183 1152.5 1183 1158.85 1177.85 1164 1171.5 1164 1165.15 1164 1160 1158.85 1160 1152.5Z" fill="#767171" fill-rule="evenodd"/><path d="M459 1319.5C459 1313.15 464.149 1308 470.5 1308 476.851 1308 482 1313.15 482 1319.5 482 1325.85 476.851 1331 470.5 1331 464.149 1331 459 1325.85 459 1319.5Z" fill="#767171" fill-rule="evenodd"/><path d="M583 1319.5C583 1313.15 588.149 1308 594.5 1308 600.851 1308 606 1313.15 606 1319.5 606 1325.85 600.851 1331 594.5 1331 588.149 1331 583 1325.85 583 1319.5Z" fill="#767171" fill-rule="evenodd"/><path d="M712 1429.5C712 1423.15 717.149 1418 723.5 1418 729.851 1418 735 1423.15 735 1429.5 735 1435.85 729.851 1441 723.5 1441 717.149 1441 712 1435.85 712 1429.5Z" fill="#767171" fill-rule="evenodd"/><path d="M828 1429.5C828 1423.15 833.149 1418 839.5 1418 845.851 1418 851 1423.15 851 1429.5 851 1435.85 845.851 1441 839.5 1441 833.149 1441 828 1435.85 828 1429.5Z" fill="#767171" fill-rule="evenodd"/><path d="M938 1429.5C938 1423.15 943.149 1418 949.5 1418 955.851 1418 961 1423.15 961 1429.5 961 1435.85 955.851 1441 949.5 1441 943.149 1441 938 1435.85 938 1429.5Z" fill="#767171" fill-rule="evenodd"/><path d="M1045 1319.5C1045 1313.15 1050.15 1308 1056.5 1308 1062.85 1308 1068 1313.15 1068 1319.5 1068 1325.85 1062.85 1331 1056.5 1331 1050.15 1331 1045 1325.85 1045 1319.5Z" fill="#767171" fill-rule="evenodd"/><path d="M1164 1319.5C1164 1313.15 1169.15 1308 1175.5 1308 1181.85 1308 1187 1313.15 1187 1319.5 1187 1325.85 1181.85 1331 1175.5 1331 1169.15 1331 1164 1325.85 1164 1319.5Z" fill="#767171" fill-rule="evenodd"/><path d="M459 1493.5C459 1487.15 464.149 1482 470.5 1482 476.851 1482 482 1487.15 482 1493.5 482 1499.85 476.851 1505 470.5 1505 464.149 1505 459 1499.85 459 1493.5Z" fill="#767171" fill-rule="evenodd"/><path d="M583 1493.5C583 1487.15 588.149 1482 594.5 1482 600.851 1482 606 1487.15 606 1493.5 606 1499.85 600.851 1505 594.5 1505 588.149 1505 583 1499.85 583 1493.5Z" fill="#767171" fill-rule="evenodd"/><path d="M711 1493.5C711 1487.15 716.149 1482 722.5 1482 728.851 1482 734 1487.15 734 1493.5 734 1499.85 728.851 1505 722.5 1505 716.149 1505 711 1499.85 711 1493.5Z" fill="#767171" fill-rule="evenodd"/><path d="M827 1493.5C827 1487.15 832.149 1482 838.5 1482 844.851 1482 850 1487.15 850 1493.5 850 1499.85 844.851 1505 838.5 1505 832.149 1505 827 1499.85 827 1493.5Z" fill="#767171" fill-rule="evenodd"/><path d="M936 1493.5C936 1487.15 941.373 1482 948 1482 954.628 1482 960 1487.15 960 1493.5 960 1499.85 954.628 1505 948 1505 941.373 1505 936 1499.85 936 1493.5Z" fill="#767171" fill-rule="evenodd"/><path d="M1049 1493.5C1049 1487.15 1054.15 1482 1060.5 1482 1066.85 1482 1072 1487.15 1072 1493.5 1072 1499.85 1066.85 1505 1060.5 1505 1054.15 1505 1049 1499.85 1049 1493.5Z" fill="#767171" fill-rule="evenodd"/><path d="M1164 1493.5C1164 1487.15 1169.15 1482 1175.5 1482 1181.85 1482 1187 1487.15 1187 1493.5 1187 1499.85 1181.85 1505 1175.5 1505 1169.15 1505 1164 1499.85 1164 1493.5Z" fill="#767171" fill-rule="evenodd"/><path d="M482 1492.85 580.759 1492.85 580.759 1495.15 482 1495.15ZM563.033 1481.57 582.92 1494 563.032 1506.43C562.496 1506.77 561.789 1506.6 561.453 1506.07 561.118 1505.53 561.281 1504.82 561.818 1504.49L580.151 1493.03 580.151 1494.97 561.818 1483.51C561.281 1483.18 561.118 1482.47 561.454 1481.93 561.789 1481.4 562.496 1481.23 563.033 1481.57Z" fill="#AFABAB"/><path d="M606 1492.85 709.316 1492.85 709.316 1495.15 606 1495.15ZM691.59 1481.57 711.478 1494 691.59 1506.43C691.053 1506.77 690.346 1506.6 690.011 1506.07 689.676 1505.53 689.839 1504.82 690.375 1504.49L708.709 1493.03 708.709 1494.97 690.375 1483.51C689.839 1483.18 689.676 1482.47 690.011 1481.93 690.346 1481.4 691.053 1481.23 691.59 1481.57Z" fill="#AFABAB"/><path d="M734 1492.85 824.13 1492.85 824.13 1495.15 734 1495.15ZM806.404 1481.57 826.292 1494 806.404 1506.43C805.867 1506.77 805.161 1506.6 804.825 1506.07 804.49 1505.53 804.653 1504.82 805.19 1504.49L823.523 1493.03 823.523 1494.97 805.19 1483.51C804.653 1483.18 804.49 1482.47 804.825 1481.93 805.161 1481.4 805.868 1481.23 806.404 1481.57Z" fill="#AFABAB"/><path d="M850 1492.85 934.583 1492.85 934.583 1495.15 850 1495.15ZM916.857 1481.57 936.745 1494 916.857 1506.43C916.32 1506.77 915.613 1506.6 915.278 1506.07 914.942 1505.53 915.106 1504.82 915.642 1504.49L933.976 1493.03 933.976 1494.97 915.642 1483.51C915.106 1483.18 914.943 1482.47 915.278 1481.93 915.613 1481.4 916.32 1481.23 916.857 1481.57Z" fill="#AFABAB"/><path d="M960 1492.85 1047.36 1492.85 1047.36 1495.15 960 1495.15ZM1029.63 1481.57 1049.52 1494 1029.63 1506.43C1029.09 1506.77 1028.39 1506.6 1028.05 1506.07 1027.71 1505.53 1027.88 1504.82 1028.41 1504.49L1046.75 1493.03 1046.75 1494.97 1028.41 1483.51C1027.88 1483.18 1027.71 1482.47 1028.05 1481.93 1028.39 1481.4 1029.09 1481.23 1029.63 1481.57Z" fill="#AFABAB"/><path d="M1072 1492.85 1161.59 1492.85 1161.59 1495.15 1072 1495.15ZM1143.87 1481.57 1163.75 1494 1143.87 1506.43C1143.33 1506.77 1142.62 1506.6 1142.29 1506.07 1141.95 1505.53 1142.11 1504.82 1142.65 1504.49L1160.98 1493.03 1160.98 1494.97 1142.65 1483.51C1142.11 1483.18 1141.95 1482.47 1142.29 1481.93 1142.62 1481.4 1143.33 1481.23 1143.87 1481.57Z" fill="#AFABAB"/><path d="M482 1318.85 580.759 1318.85 580.759 1321.15 482 1321.15ZM563.033 1307.57 582.92 1320 563.032 1332.43C562.496 1332.77 561.789 1332.6 561.453 1332.07 561.118 1331.53 561.281 1330.82 561.818 1330.49L580.151 1319.03 580.151 1320.97 561.818 1309.51C561.281 1309.18 561.118 1308.47 561.454 1307.93 561.789 1307.4 562.496 1307.23 563.033 1307.57Z" fill="#AFABAB"/><path d="M606.823 1319.2 711.852 1427.51 710.207 1429.1 605.177 1320.8ZM707.613 1406.93 712.535 1429.86 689.766 1424.23C689.152 1424.08 688.777 1423.46 688.929 1422.85 689.081 1422.23 689.702 1421.86 690.316 1422.01L711.305 1427.19 709.91 1428.55 705.372 1407.41C705.24 1406.79 705.633 1406.18 706.252 1406.05 706.871 1405.91 707.48 1406.31 707.613 1406.93Z" fill="#AFABAB"/><path d="M735 1428.85 825.13 1428.85 825.13 1431.15 735 1431.15ZM807.404 1417.57 827.292 1430 807.404 1442.43C806.868 1442.77 806.161 1442.6 805.825 1442.07 805.49 1441.53 805.653 1440.82 806.19 1440.49L824.523 1429.03 824.523 1430.97 806.19 1419.51C805.653 1419.18 805.49 1418.47 805.825 1417.93 806.161 1417.4 806.868 1417.23 807.404 1417.57Z" fill="#AFABAB"/><path d="M851 1428.85 935.583 1428.85 935.583 1431.15 851 1431.15ZM917.857 1417.57 937.745 1430 917.857 1442.43C917.32 1442.77 916.613 1442.6 916.278 1442.07 915.942 1441.53 916.106 1440.82 916.642 1440.49L934.976 1429.03 934.976 1430.97 916.642 1419.51C916.106 1419.18 915.943 1418.47 916.278 1417.93 916.613 1417.4 917.32 1417.23 917.857 1417.57Z" fill="#AFABAB"/><path d="M0.85037-0.767988 91.2388 99.3164 89.538 100.852-0.85037 0.767988ZM87.7329 78.5985 91.8379 101.689 69.2833 95.2608C68.6747 95.0874 68.3219 94.4534 68.4954 93.8448 68.6689 93.2362 69.3028 92.8835 69.9114 93.0569L90.7029 98.9829 89.2607 100.285 85.4766 78.9997C85.3658 78.3766 85.7811 77.7817 86.4042 77.671 87.0272 77.5602 87.6221 77.9755 87.7329 78.5985Z" fill="#AFABAB" transform="matrix(1 0 0 -1 957 1421.68)"/><path d="M1072 1318.85 1161.59 1318.85 1161.59 1321.15 1072 1321.15ZM1143.87 1307.57 1163.75 1320 1143.87 1332.43C1143.33 1332.77 1142.62 1332.6 1142.29 1332.07 1141.95 1331.53 1142.11 1330.82 1142.65 1330.49L1160.98 1319.03 1160.98 1320.97 1142.65 1309.51C1142.11 1309.18 1141.95 1308.47 1142.29 1307.93 1142.62 1307.4 1143.33 1307.23 1143.87 1307.57Z" fill="#AFABAB"/><path d="M480.811 1160.19 583.586 1263.27 581.963 1264.89 479.188 1161.81ZM579.061 1242.75 584.301 1265.61 561.457 1260.3C560.84 1260.16 560.457 1259.54 560.6 1258.93 560.743 1258.31 561.359 1257.93 561.975 1258.07L583.034 1262.96 581.658 1264.34 576.828 1243.26C576.686 1242.65 577.072 1242.03 577.688 1241.89 578.305 1241.75 578.92 1242.13 579.061 1242.75Z" fill="#AFABAB"/><path d="M0.83687-0.782676 104.835 110.417 103.162 111.982-0.83687 0.782676ZM100.969 89.7629 105.475 112.779 82.8123 106.744C82.2008 106.581 81.837 105.953 81.9999 105.342 82.1627 104.73 82.7905 104.367 83.402 104.529L104.294 110.093 102.874 111.42 98.7201 90.2033C98.5985 89.5822 99.0033 88.9802 99.6244 88.8586 100.245 88.737 100.847 89.1419 100.969 89.7629Z" fill="#AFABAB" transform="matrix(1 0 0 -1 607 1265.77)"/><path d="M736 1151.85 826.13 1151.85 826.13 1154.15 736 1154.15ZM808.404 1140.57 828.292 1153 808.404 1165.43C807.868 1165.77 807.161 1165.6 806.825 1165.07 806.49 1164.53 806.653 1163.82 807.19 1163.49L825.523 1152.03 825.523 1153.97 807.19 1142.51C806.653 1142.18 806.49 1141.47 806.825 1140.93 807.161 1140.4 807.868 1140.23 808.404 1140.57Z" fill="#AFABAB"/><path d="M851 1151.85 935.583 1151.85 935.583 1154.15 851 1154.15ZM917.857 1140.57 937.745 1153 917.857 1165.43C917.32 1165.77 916.613 1165.6 916.278 1165.07 915.942 1164.53 916.106 1163.82 916.642 1163.49L934.976 1152.03 934.976 1153.97 916.642 1142.51C916.106 1142.18 915.943 1141.47 916.278 1140.93 916.613 1140.4 917.32 1140.23 917.857 1140.57Z" fill="#AFABAB"/><path d="M958.879 1160.26 1044.95 1263.22 1043.19 1264.69 957.121 1161.73ZM1042.24 1242.38 1045.46 1265.61 1023.17 1258.33C1022.57 1258.13 1022.24 1257.48 1022.43 1256.88 1022.63 1256.28 1023.28 1255.95 1023.88 1256.15L1044.43 1262.86 1042.94 1264.11 1039.97 1242.7C1039.88 1242.07 1040.32 1241.49 1040.95 1241.4 1041.57 1241.32 1042.15 1241.75 1042.24 1242.38Z" fill="#AFABAB"/><path d="M0.847719-0.770912 94.5269 102.242 92.8315 103.784-0.847719 0.770912ZM90.9491 81.5353 95.1336 104.612 72.557 98.261C71.9478 98.0896 71.5929 97.4569 71.7642 96.8477 71.9356 96.2385 72.5684 95.8836 73.1775 96.055L93.9893 101.909 92.5516 103.217 88.6942 81.9442C88.5813 81.3215 88.9945 80.7252 89.6172 80.6123 90.2399 80.4994 90.8362 80.9126 90.9491 81.5353Z" fill="#AFABAB" transform="matrix(1 0 0 -1 1068 1265.61)"/><path d="M395 1089.85 1236.64 1089.85 1236.64 1092.15 395 1092.15ZM1209.71 1073.97 1238.91 1091 1209.71 1108.03C1209.17 1108.35 1208.47 1108.17 1208.15 1107.62 1207.83 1107.07 1208.01 1106.37 1208.56 1106.05L1236.06 1090.01 1236.06 1091.99 1208.56 1075.95C1208.01 1075.63 1207.83 1074.93 1208.15 1074.38 1208.47 1073.83 1209.17 1073.65 1209.71 1073.97Z"/><path d="M396.146 1091 396.146 1577.34 393.854 1577.34 393.854 1091ZM412.032 1550.41 395 1579.61 377.969 1550.41C377.65 1549.87 377.835 1549.17 378.381 1548.85 378.928 1548.53 379.63 1548.71 379.948 1549.26L395.99 1576.76 394.011 1576.76 410.052 1549.26C410.371 1548.71 411.073 1548.53 411.619 1548.85 412.166 1549.17 412.351 1549.87 412.032 1550.41Z"/><text font-family="Times New Roman,Times New Roman_MSFontService,sans-serif" font-style="italic" font-weight="400" font-size="55" transform="matrix(1 0 0 1 408.781 1599)">y<tspan font-size="55" x="278.913" y="-1">f</tspan><tspan font-size="37" x="294.382" y="-18">sp</tspan><tspan font-size="55" x="340.788" y="-1">= (x, y)</tspan></text></g></svg>