<?xml version="1.0" encoding="UTF-8" standalone="no"?>
<!-- Created with Inkscape (http://www.inkscape.org/) -->

<svg
   width="164.29527mm"
   height="43.958633mm"
   viewBox="0 0 164.29527 43.958633"
   version="1.1"
   id="svg5"
   inkscape:version="1.2.2 (b0a8486541, 2022-12-01)"
   sodipodi:docname="overview.svg"
   xmlns:inkscape="http://www.inkscape.org/namespaces/inkscape"
   xmlns:sodipodi="http://sodipodi.sourceforge.net/DTD/sodipodi-0.dtd"
   xmlns="http://www.w3.org/2000/svg"
   xmlns:svg="http://www.w3.org/2000/svg">
  <sodipodi:namedview
     id="namedview7"
     pagecolor="#ffffff"
     bordercolor="#000000"
     borderopacity="0.25"
     inkscape:showpageshadow="2"
     inkscape:pageopacity="0.0"
     inkscape:pagecheckerboard="0"
     inkscape:deskcolor="#d1d1d1"
     inkscape:document-units="mm"
     showgrid="false"
     inkscape:zoom="0.78127806"
     inkscape:cx="389.10603"
     inkscape:cy="-11.519586"
     inkscape:window-width="1920"
     inkscape:window-height="1057"
     inkscape:window-x="1912"
     inkscape:window-y="-8"
     inkscape:window-maximized="1"
     inkscape:current-layer="layer1" />
  <defs
     id="defs2">
    <clipPath
       id="clip0">
      <rect
         x="202"
         y="329"
         width="640"
         height="183"
         id="rect9" />
    </clipPath>
  </defs>
  <g
     inkscape:label="Layer 1"
     inkscape:groupmode="layer"
     id="layer1"
     transform="translate(-2.1773379,-151.75044)">
    <g
       clip-path="url(#clip0)"
       transform="matrix(0.26458333,0,0,0.26458333,-53.950668,62.433029)"
       id="g86">
      <path
         d="m 288.723,383.252 24.286,21.879 -0.446,0.496 -24.286,-21.879 z m 25.75,18.263 3.266,8.326 -8.621,-2.383 z"
         id="path14" />
      <rect
         x="318"
         y="385"
         width="96"
         height="48"
         fill="#333f50"
         id="rect16" />
      <text
         fill="#ffffff"
         font-family="'Times New Roman', 'Times New Roman_MSFontService', sans-serif"
         font-weight="400"
         font-size="16px"
         transform="translate(328.17,405)"
         id="text20">Abstracting<tspan
   font-size="16px"
   x="-0.72000098"
   y="20"
   id="tspan18">Trajectories</tspan></text>
      <rect
         x="482"
         y="385"
         width="96"
         height="48"
         fill="#333f50"
         id="rect22" />
      <text
         fill="#ffffff"
         font-family="'Times New Roman', 'Times New Roman_MSFontService', sans-serif"
         font-weight="400"
         font-size="16px"
         transform="translate(502.701,405)"
         id="text26">Creating <tspan
   font-size="16px"
   x="-13.0533"
   y="20"
   id="tspan24">Transactions</tspan></text>
      <rect
         x="636"
         y="385"
         width="96"
         height="48"
         fill="#333f50"
         id="rect28" />
      <text
         fill="#ffffff"
         font-family="'Times New Roman', 'Times New Roman_MSFontService', sans-serif"
         font-weight="400"
         font-size="16px"
         transform="translate(660.695,415)"
         id="text30">Mining</text>
      <path
         d="M 0.130126,-0.306885 50.5935,21.0906 50.3332,21.7044 -0.130126,0.306885 Z M 50.7973,17.1944 56.601,24 47.6743,24.5596 Z"
         transform="matrix(1,0,0,-1,261.5,433.5)"
         id="path32" />
      <path
         d="m 414.5,409.167 h 62.114 v 0.666 H 414.5 Z m 60.781,-3.667 8,4 -8,4 z"
         id="path34" />
      <path
         d="m 578.5,409.167 h 51.243 v 0.666 H 578.5 Z m 49.91,-3.667 8,4 -8,4 z"
         id="path36" />
      <path
         d="m 764.5,391.667 c 0,-5.063 11.641,-9.167 26,-9.167 14.359,0 26,4.104 26,9.167 v 36.666 c 0,5.063 -11.641,9.167 -26,9.167 -14.359,0 -26,-4.104 -26,-9.167 z"
         fill="#ededed"
         fill-rule="evenodd"
         id="path38" />
      <path
         d="m 816.5,391.667 c 0,5.062 -11.641,9.166 -26,9.166 -14.359,0 -26,-4.104 -26,-9.166"
         stroke="#a5a5a5"
         stroke-width="0.666667"
         stroke-miterlimit="8"
         fill="none"
         fill-rule="evenodd"
         id="path40" />
      <path
         d="m 764.5,391.667 c 0,-5.063 11.641,-9.167 26,-9.167 14.359,0 26,4.104 26,9.167 v 36.666 c 0,5.063 -11.641,9.167 -26,9.167 -14.359,0 -26,-4.104 -26,-9.167 z"
         stroke="#a5a5a5"
         stroke-width="0.666667"
         stroke-miterlimit="8"
         fill="none"
         fill-rule="evenodd"
         id="path42" />
      <path
         d="m 231.5,364.167 c 0,-5.339 12.76,-9.667 28.5,-9.667 15.74,0 28.5,4.328 28.5,9.667 v 38.666 c 0,5.339 -12.76,9.667 -28.5,9.667 -15.74,0 -28.5,-4.328 -28.5,-9.667 z"
         fill="#ededed"
         fill-rule="evenodd"
         id="path44" />
      <path
         d="m 288.5,364.167 c 0,5.338 -12.76,9.666 -28.5,9.666 -15.74,0 -28.5,-4.328 -28.5,-9.666"
         stroke="#a5a5a5"
         stroke-width="0.666667"
         stroke-miterlimit="8"
         fill="none"
         fill-rule="evenodd"
         id="path46" />
      <path
         d="m 231.5,364.167 c 0,-5.339 12.76,-9.667 28.5,-9.667 15.74,0 28.5,4.328 28.5,9.667 v 38.666 c 0,5.339 -12.76,9.667 -28.5,9.667 -15.74,0 -28.5,-4.328 -28.5,-9.667 z"
         stroke="#a5a5a5"
         stroke-width="0.666667"
         stroke-miterlimit="8"
         fill="none"
         fill-rule="evenodd"
         id="path48" />
      <text
         font-family="'Times New Roman', 'Times New Roman_MSFontService', sans-serif"
         font-weight="400"
         font-size="15px"
         transform="translate(211.881,348)"
         id="text50">Raw trajectories</text>
      <path
         d="m 732.5,409.167 h 24.711 v 0.666 H 732.5 Z m 23.378,-3.667 8,4 -8,4 z"
         id="path52" />
      <path
         d="M 0.166667,-5.56381e-7 0.166749,24.7827 H -0.166584 L -0.166667,5.56381e-7 Z M 4.00008,23.4493 1.04987e-4,31.4493 -3.99992,23.4494 Z"
         fill="#a5a5a5"
         transform="matrix(1,0,0,-1,260.5,482.949)"
         id="path54" />
      <path
         d="M 4.89278e-7,-0.166667 29.0959,-0.166581 V 0.166752 L -4.89278e-7,0.166667 Z M 27.7625,-3.99992 l 8,4.000024987 -8,3.999975013 z"
         fill="#a5a5a5"
         transform="matrix(1,0,0,-1,260.5,483.5)"
         id="path56" />
      <path
         d="M 0.107273,-0.127555 19.0487,15.802 18.8342,16.0571 -0.107273,0.127555 Z M 20.4956,12.0101 l 3.5481,8.2104 -8.6972,-2.0878 z"
         fill="#a5a5a5"
         transform="matrix(-1,0,0,1,260.544,483.5)"
         id="path58" />
      <text
         font-family="'Times New Roman', 'Times New Roman_MSFontService', sans-serif"
         font-weight="400"
         font-size="15px"
         transform="translate(225.736,447)"
         id="text60">Tessellation</text>
      <path
         d="m 588.5,363.833 c 0,-3.497 8.507,-6.333 19,-6.333 10.493,0 19,2.836 19,6.333 v 25.334 c 0,3.498 -8.507,6.333 -19,6.333 -10.493,0 -19,-2.835 -19,-6.333 z"
         fill="#ededed"
         fill-rule="evenodd"
         id="path62" />
      <path
         d="m 626.5,363.833 c 0,3.498 -8.507,6.334 -19,6.334 -10.493,0 -19,-2.836 -19,-6.334"
         stroke="#a5a5a5"
         stroke-width="0.666667"
         stroke-miterlimit="8"
         fill="none"
         fill-rule="evenodd"
         id="path64" />
      <path
         d="m 588.5,363.833 c 0,-3.497 8.507,-6.333 19,-6.333 10.493,0 19,2.836 19,6.333 v 25.334 c 0,3.498 -8.507,6.333 -19,6.333 -10.493,0 -19,-2.835 -19,-6.333 z"
         stroke="#a5a5a5"
         stroke-width="0.666667"
         stroke-miterlimit="8"
         fill="none"
         fill-rule="evenodd"
         id="path66" />
      <text
         font-family="'Times New Roman', 'Times New Roman_MSFontService', sans-serif"
         font-weight="400"
         font-size="15px"
         transform="translate(569.966,348)"
         id="text68">Transactions</text>
      <path
         d="m 426.5,361.667 c 0,-3.958 9.626,-7.167 21.5,-7.167 11.874,0 21.5,3.209 21.5,7.167 v 28.666 c 0,3.958 -9.626,7.167 -21.5,7.167 -11.874,0 -21.5,-3.209 -21.5,-7.167 z"
         fill="#ededed"
         fill-rule="evenodd"
         id="path70" />
      <path
         d="m 469.5,361.667 c 0,3.958 -9.626,7.166 -21.5,7.166 -11.874,0 -21.5,-3.208 -21.5,-7.166"
         stroke="#a5a5a5"
         stroke-width="0.666667"
         stroke-miterlimit="8"
         fill="none"
         fill-rule="evenodd"
         id="path72" />
      <path
         d="m 426.5,361.667 c 0,-3.958 9.626,-7.167 21.5,-7.167 11.874,0 21.5,3.209 21.5,7.167 v 28.666 c 0,3.958 -9.626,7.167 -21.5,7.167 -11.874,0 -21.5,-3.209 -21.5,-7.167 z"
         stroke="#a5a5a5"
         stroke-width="0.666667"
         stroke-miterlimit="8"
         fill="none"
         fill-rule="evenodd"
         id="path74" />
      <text
         font-family="'Times New Roman', 'Times New Roman_MSFontService', sans-serif"
         font-weight="400"
         font-size="15px"
         transform="translate(413.053,348)"
         id="text84">Trajectories<tspan
   font-size="15px"
   x="334.703"
   y="0"
   id="tspan76">Co</tspan><tspan
   font-size="15px"
   x="351.87"
   y="0"
   id="tspan78">-</tspan><tspan
   font-size="15px"
   x="356.703"
   y="0"
   id="tspan80">movement</tspan><tspan
   font-size="15px"
   x="353.03601"
   y="18"
   id="tspan82">Patterns</tspan></text>
    </g>
  </g>
</svg>
