<?xml version="1.0" encoding="UTF-8" standalone="no"?>
<!-- Created with Inkscape (http://www.inkscape.org/) -->

<svg
   width="51.330048mm"
   height="49.509079mm"
   viewBox="0 0 51.330048 49.509079"
   version="1.1"
   id="svg5"
   inkscape:version="1.2.2 (b0a8486541, 2022-12-01)"
   sodipodi:docname="patterns2.svg"
   xmlns:inkscape="http://www.inkscape.org/namespaces/inkscape"
   xmlns:sodipodi="http://sodipodi.sourceforge.net/DTD/sodipodi-0.dtd"
   xmlns="http://www.w3.org/2000/svg"
   xmlns:svg="http://www.w3.org/2000/svg">
  <sodipodi:namedview
     id="namedview7"
     pagecolor="#ffffff"
     bordercolor="#000000"
     borderopacity="0.25"
     inkscape:showpageshadow="2"
     inkscape:pageopacity="0.0"
     inkscape:pagecheckerboard="0"
     inkscape:deskcolor="#d1d1d1"
     inkscape:document-units="mm"
     showgrid="false"
     inkscape:zoom="4.4195761"
     inkscape:cx="68.106079"
     inkscape:cy="84.6235"
     inkscape:window-width="1920"
     inkscape:window-height="1057"
     inkscape:window-x="1912"
     inkscape:window-y="-8"
     inkscape:window-maximized="1"
     inkscape:current-layer="g134" />
  <defs
     id="defs2">
    <clipPath
       id="clip0">
      <rect
         x="49"
         y="309"
         width="217"
         height="210"
         id="rect9" />
    </clipPath>
  </defs>
  <g
     inkscape:label="Layer 1"
     inkscape:groupmode="layer"
     id="layer1"
     transform="translate(-63.739765,-53.813305)">
    <g
       clip-path="url(#clip0)"
       transform="matrix(0.26458333,0,0,0.26458333,47.994365,-29.839124)"
       id="g134">
      <path
         d="M 0,0 1.04987e-4,170.477"
         stroke="#d0cece"
         stroke-width="0.666667"
         stroke-miterlimit="8"
         stroke-dasharray="2.66667, 2"
         fill="none"
         fill-rule="evenodd"
         transform="matrix(1,0,0,-1,69.5001,486.978)"
         id="path14" />
      <path
         d="M 69.5001,403.5 H 240.38"
         stroke="#d0cece"
         stroke-width="0.666667"
         stroke-miterlimit="8"
         stroke-dasharray="2.66667, 2"
         fill="none"
         fill-rule="evenodd"
         id="path16" />
      <path
         d="M 69.5001,446.5 H 240.38"
         stroke="#d0cece"
         stroke-width="0.666667"
         stroke-miterlimit="8"
         stroke-dasharray="2.66667, 2"
         fill="none"
         fill-rule="evenodd"
         id="path18" />
      <path
         d="M 69.5001,316.5 H 240.38"
         stroke="#d0cece"
         stroke-width="0.666667"
         stroke-miterlimit="8"
         stroke-dasharray="2.66667, 2"
         fill="none"
         fill-rule="evenodd"
         id="path20" />
      <path
         d="M 69.5001,359.5 H 240.38"
         stroke="#d0cece"
         stroke-width="0.666667"
         stroke-miterlimit="8"
         stroke-dasharray="2.66667, 2"
         fill="none"
         fill-rule="evenodd"
         id="path22" />
      <path
         d="M 0,0 1.04987e-4,170.516"
         stroke="#d0cece"
         stroke-width="0.666667"
         stroke-miterlimit="8"
         stroke-dasharray="2.66667, 2"
         fill="none"
         fill-rule="evenodd"
         transform="matrix(1,0,0,-1,112.5,487.016)"
         id="path24" />
      <path
         d="M 0,0 1.04987e-4,170.328"
         stroke="#d0cece"
         stroke-width="0.666667"
         stroke-miterlimit="8"
         stroke-dasharray="2.66667, 2"
         fill="none"
         fill-rule="evenodd"
         transform="matrix(1,0,0,-1,154.5,486.829)"
         id="path26" />
      <path
         d="M 0,0 1.04987e-4,170.516"
         stroke="#d0cece"
         stroke-width="0.666667"
         stroke-miterlimit="8"
         stroke-dasharray="2.66667, 2"
         fill="none"
         fill-rule="evenodd"
         transform="matrix(1,0,0,-1,197.5,487.016)"
         id="path28" />
      <path
         d="M 0,0 1.04987e-4,170.521"
         stroke="#d0cece"
         stroke-width="0.666667"
         stroke-miterlimit="8"
         stroke-dasharray="2.66667, 2"
         fill="none"
         fill-rule="evenodd"
         transform="matrix(1,0,0,-1,239.5,487.021)"
         id="path30" />
      <path
         d="M 69.5001,486.5 H 240.38"
         stroke="#d0cece"
         stroke-width="0.666667"
         stroke-miterlimit="8"
         stroke-dasharray="2.66667, 2"
         fill="none"
         fill-rule="evenodd"
         id="path32" />
      <path
         d="m 87,349 h 29.655 v 2 H 87 Z m 24.852,-3.181 6.69,4.181 -6.69,4.181 c -0.469,0.293 -1.086,0.151 -1.378,-0.318 -0.293,-0.468 -0.151,-1.085 0.318,-1.378 l 5.333,-3.333 v 1.696 l -5.333,-3.333 c -0.469,-0.293 -0.611,-0.91 -0.318,-1.378 0.292,-0.469 0.909,-0.611 1.378,-0.318 z"
         fill="#70ad47"
         id="path34" />
      <path
         d="m 119.08853,468.86867 -32.755598,10e-5 v 2 l 32.755598,-10e-5 z m -27.952298,-3.18125 -6.6901,4.18136 6.6902,4.18131 c 0.4683,0.29271 1.0852,0.15033 1.378,-0.31801 0.2927,-0.46833 0.1503,-1.08528 -0.3181,-1.37799 l -5.3333,-3.33332 v 1.696 l 5.3333,-3.33335 c 0.4684,-0.29272 0.6107,-0.90967 0.318,-1.378 -0.2927,-0.46834 -0.9096,-0.61071 -1.378,-0.318 z"
         fill="#70ad47"
         id="path36" />
      <path
         d="m 87,335 h 54.05 v 2 H 87 Z m 49.247,-3.181 6.69,4.181 -6.69,4.181 c -0.469,0.293 -1.086,0.151 -1.378,-0.318 -0.293,-0.468 -0.151,-1.085 0.318,-1.378 l 5.333,-3.333 v 1.696 l -5.333,-3.333 c -0.469,-0.293 -0.611,-0.91 -0.318,-1.378 0.292,-0.469 0.909,-0.611 1.378,-0.318 z"
         fill="#ff0000"
         id="path38" />
      <path
         d="m 149,341 v 36.488 h -2 V 341 Z m 3.181,31.685 -4.181,6.69 -4.181,-6.69 c -0.293,-0.469 -0.151,-1.086 0.318,-1.378 0.468,-0.293 1.085,-0.151 1.378,0.318 l 3.333,5.333 h -1.696 l 3.333,-5.333 c 0.293,-0.469 0.91,-0.611 1.378,-0.318 0.469,0.292 0.611,0.909 0.318,1.378 z"
         fill="#ff0000"
         id="path40" />
      <path
         d="m 149,389 v 36.991 h -2 V 389 Z m 3.181,32.188 -4.181,6.69 -4.181,-6.69 c -0.293,-0.469 -0.151,-1.086 0.318,-1.378 0.468,-0.293 1.085,-0.151 1.378,0.318 l 3.333,5.333 h -1.696 l 3.333,-5.333 c 0.293,-0.469 0.91,-0.611 1.378,-0.318 0.469,0.292 0.611,0.909 0.318,1.378 z"
         fill="#ff0000"
         id="path42" />
      <path
         d="m 153,431 h 71.932 v 2 H 153 Z m 67.129,-3.181 6.69,4.181 -6.69,4.181 c -0.468,0.293 -1.085,0.151 -1.378,-0.318 -0.293,-0.468 -0.15,-1.085 0.318,-1.378 l 5.333,-3.333 v 1.696 l -5.333,-3.333 c -0.468,-0.293 -0.611,-0.91 -0.318,-1.378 0.293,-0.469 0.91,-0.611 1.378,-0.318 z"
         fill="#ff0000"
         id="path44" />
      <path
         d="m 87,321 h 39.226 v 2 H 87 Z m 34.423,-3.181 6.69,4.181 -6.69,4.181 c -0.468,0.293 -1.085,0.151 -1.378,-0.318 -0.293,-0.468 -0.15,-1.085 0.318,-1.378 l 5.333,-3.333 v 1.696 l -5.333,-3.333 c -0.468,-0.293 -0.611,-0.91 -0.318,-1.378 0.293,-0.469 0.91,-0.611 1.378,-0.318 z"
         fill="#5b9bd5"
         id="path46" />
      <path
         d="m 138,321 h 39.344 v 2 H 138 Z m 34.54,-3.181 6.691,4.181 -6.691,4.181 c -0.468,0.293 -1.085,0.151 -1.378,-0.318 -0.292,-0.468 -0.15,-1.085 0.318,-1.378 l 5.334,-3.333 v 1.696 l -5.334,-3.333 c -0.468,-0.293 -0.61,-0.91 -0.317,-1.378 0.292,-0.469 0.909,-0.611 1.377,-0.318 z"
         fill="#5b9bd5"
         id="path48" />
      <path
         d="m 188,321 h 25.932 v 2 H 188 Z m 21.128,-3.181 6.691,4.181 -6.691,4.181 c -0.468,0.293 -1.085,0.151 -1.378,-0.318 -0.292,-0.468 -0.15,-1.085 0.318,-1.378 l 5.334,-3.333 v 1.696 l -5.334,-3.333 c -0.468,-0.293 -0.61,-0.91 -0.318,-1.378 0.293,-0.469 0.91,-0.611 1.378,-0.318 z"
         fill="#5b9bd5"
         id="path50" />
      <text
         font-family="'Times New Roman', 'Times New Roman_MSFontService', sans-serif"
         font-weight="400"
         font-size="19px"
         transform="translate(84.1772,503)"
         id="text78">A<tspan
   font-size="19px"
   x="41.9403"
   y="0"
   id="tspan52">B</tspan><tspan
   font-size="19px"
   x="83.880501"
   y="0"
   id="tspan54">C</tspan><tspan
   font-size="19px"
   x="126.999"
   y="0"
   id="tspan56">D</tspan><tspan
   font-size="19px"
   x="160.495"
   y="-161"
   id="tspan58">1</tspan><tspan
   font-size="19px"
   x="160.495"
   y="-118"
   id="tspan60">2</tspan><tspan
   font-size="19px"
   x="160.495"
   y="-75"
   id="tspan62">3</tspan><tspan
   font-size="19px"
   x="160.495"
   y="-32"
   id="tspan64">4</tspan><tspan
   font-size="16px"
   x="-25.1514"
   y="-174"
   id="tspan66">T</tspan><tspan
   font-size="11px"
   x="-15.3181"
   y="-171"
   id="tspan68">b</tspan><tspan
   font-size="16px"
   x="-24.484699"
   y="-150"
   id="tspan70">T</tspan><tspan
   font-size="11px"
   x="-14.6514"
   y="-147"
   id="tspan72">g</tspan><tspan
   font-size="16px"
   x="125.075"
   y="-80"
   id="tspan74">T</tspan><tspan
   font-size="11px"
   x="134.34801"
   y="-77"
   id="tspan76">r</tspan></text>
      <path
         d="m 222,326.995 0.05,10.65 -2,0.01 -0.05,-10.65 z m 3.209,5.832 -4.15,6.71 -4.213,-6.671 c -0.295,-0.467 -0.155,-1.084 0.312,-1.379 0.467,-0.295 1.084,-0.156 1.379,0.311 l 3.358,5.318 -1.696,0.008 3.309,-5.349 c 0.29,-0.469 0.906,-0.615 1.376,-0.324 0.47,0.29 0.615,0.907 0.325,1.376 z"
         fill="#5b9bd5"
         id="path80" />
      <path
         d="M 3.726e-6,-1 26.2968,-0.999902 V 1.0001 L -3.726e-6,1 Z M 21.4935,-4.18125 28.1836,1.05143e-4 21.4934,4.18141 c -0.4683,0.29271 -1.0852,0.15033 -1.378,-0.318 -0.2927,-0.46834 -0.1503,-1.08529 0.3181,-1.378 l 5.3333,-3.333312 V 0.848094 L 20.4335,-2.48526 c -0.4684,-0.29271 -0.6107,-0.90966 -0.318,-1.378 0.2927,-0.46833 0.9096,-0.6107 1.378,-0.31799 z"
         fill="#5b9bd5"
         transform="matrix(-1,0,0,1,216.177,345)"
         id="path82" />
      <text
         font-family="'Times New Roman', 'Times New Roman_MSFontService', sans-serif"
         font-weight="400"
         font-size="16px"
         transform="translate(136.847,397)"
         id="text84">p</text>
      <path
         d="m 77.5001,323 c 0,-2.485 2.2385,-4.5 5,-4.5 2.7614,0 5,2.015 5,4.5 0,2.485 -2.2386,4.5 -5,4.5 -2.7615,0 -5,-2.015 -5,-4.5 z"
         stroke="#41719c"
         stroke-width="1.33333"
         stroke-miterlimit="8"
         fill="#5b9bd5"
         fill-rule="evenodd"
         id="path86" />
      <path
         d="m 78.5001,336.5 c 0,-2.761 2.0147,-5 4.5,-5 2.4852,0 4.5,2.239 4.5,5 0,2.761 -2.0148,5 -4.5,5 -2.4853,0 -4.5,-2.239 -4.5,-5 z"
         stroke="#ae5a21"
         stroke-width="1.33333"
         stroke-miterlimit="8"
         fill="#ff0000"
         fill-rule="evenodd"
         id="path88" />
      <path
         d="m 78.5001,350.5 c 0,-2.761 2.0147,-5 4.5,-5 2.4852,0 4.5,2.239 4.5,5 0,2.761 -2.0148,5 -4.5,5 -2.4853,0 -4.5,-2.239 -4.5,-5 z"
         stroke="#507e32"
         stroke-width="1.33333"
         stroke-miterlimit="8"
         fill="#70ad47"
         fill-rule="evenodd"
         id="path90" />
      <path
         d="m 125.09494,355 v 10.167 h -2 V 355 Z m 3.181,5.364 -4.181,6.69 -4.181,-6.69 c -0.293,-0.468 -0.151,-1.085 0.318,-1.378 0.468,-0.293 1.085,-0.151 1.378,0.318 l 3.333,5.333 h -1.696 l 3.333,-5.333 c 0.293,-0.469 0.91,-0.611 1.378,-0.318 0.469,0.292 0.611,0.909 0.318,1.378 z"
         fill="#70ad47"
         id="path92" />
      <path
         d="m 125.09494,377 v 10.84 h -2 V 377 Z m 3.181,6.037 -4.181,6.69 -4.181,-6.69 c -0.293,-0.468 -0.151,-1.085 0.318,-1.378 0.468,-0.293 1.085,-0.15 1.378,0.318 l 3.333,5.333 h -1.696 l 3.333,-5.333 c 0.293,-0.468 0.91,-0.611 1.378,-0.318 0.469,0.293 0.611,0.91 0.318,1.378 z"
         fill="#70ad47"
         id="path94" />
      <path
         d="m 125.09494,421 v 10.841 h -2 V 421 Z m 3.181,6.037 -4.181,6.69 -4.181,-6.69 c -0.293,-0.468 -0.151,-1.085 0.318,-1.378 0.468,-0.292 1.085,-0.15 1.378,0.318 l 3.333,5.334 h -1.696 l 3.333,-5.334 c 0.293,-0.468 0.91,-0.611 1.378,-0.318 0.469,0.293 0.611,0.91 0.318,1.378 z"
         fill="#70ad47"
         id="path96" />
      <path
         d="m 125.09494,399 v 10.84 h -2 V 399 Z m 3.181,6.037 -4.181,6.69 -4.181,-6.69 c -0.293,-0.468 -0.151,-1.085 0.318,-1.378 0.468,-0.293 1.085,-0.15 1.378,0.318 l 3.333,5.333 h -1.696 l 3.333,-5.333 c 0.293,-0.468 0.91,-0.611 1.378,-0.318 0.469,0.293 0.611,0.91 0.318,1.378 z"
         fill="#70ad47"
         id="path98" />
      <path
         d="m 125.09494,443 v 20.06044 h -2 V 443 Z m 3.181,15.05757 -4.181,6.9684 -4.181,-6.9684 c -0.293,-0.48747 -0.151,-1.13015 0.318,-1.43534 0.468,-0.3052 1.085,-0.15624 1.378,0.33123 l 3.333,5.55493 h -1.696 l 3.333,-5.55493 c 0.293,-0.48747 0.91,-0.63643 1.378,-0.33123 0.469,0.30519 0.611,0.94787 0.318,1.43534 z"
         fill="#70ad47"
         id="path100"
         style="stroke-width:1.02059" />
      <path
         d="m 128.5,323 c 0,-2.485 2.239,-4.5 5,-4.5 2.761,0 5,2.015 5,4.5 0,2.485 -2.239,4.5 -5,4.5 -2.761,0 -5,-2.015 -5,-4.5 z"
         stroke="#41719c"
         stroke-width="1.33333"
         stroke-miterlimit="8"
         fill="#5b9bd5"
         fill-rule="evenodd"
         id="path102" />
      <path
         d="m 179.5,323 c 0,-2.485 2.015,-4.5 4.5,-4.5 2.485,0 4.5,2.015 4.5,4.5 0,2.485 -2.015,4.5 -4.5,4.5 -2.485,0 -4.5,-2.015 -4.5,-4.5 z"
         stroke="#41719c"
         stroke-width="1.33333"
         stroke-miterlimit="8"
         fill="#5b9bd5"
         fill-rule="evenodd"
         id="path104" />
      <path
         d="m 216.5,323 c 0,-2.485 2.239,-4.5 5,-4.5 2.761,0 5,2.015 5,4.5 0,2.485 -2.239,4.5 -5,4.5 -2.761,0 -5,-2.015 -5,-4.5 z"
         stroke="#41719c"
         stroke-width="1.33333"
         stroke-miterlimit="8"
         fill="#5b9bd5"
         fill-rule="evenodd"
         id="path106" />
      <path
         d="m 143.5,336.5 c 0,-2.761 2.239,-5 5,-5 2.761,0 5,2.239 5,5 0,2.761 -2.239,5 -5,5 -2.761,0 -5,-2.239 -5,-5 z"
         stroke="#ae5a21"
         stroke-width="1.33333"
         stroke-miterlimit="8"
         fill="#ff0000"
         fill-rule="evenodd"
         id="path108" />
      <path
         d="m 143.5,432.5 c 0,-2.761 2.239,-5 5,-5 2.761,0 5,2.239 5,5 0,2.761 -2.239,5 -5,5 -2.761,0 -5,-2.239 -5,-5 z"
         stroke="#ae5a21"
         stroke-width="1.33333"
         stroke-miterlimit="8"
         fill="#ff0000"
         fill-rule="evenodd"
         id="path110" />
      <path
         d="m 226.5,432.5 c 0,-2.761 2.239,-5 5,-5 2.761,0 5,2.239 5,5 0,2.761 -2.239,5 -5,5 -2.761,0 -5,-2.239 -5,-5 z"
         stroke="#ae5a21"
         stroke-width="1.33333"
         stroke-miterlimit="8"
         fill="#ff0000"
         fill-rule="evenodd"
         id="path112" />
      <path
         d="m 216.5,345 c 0,-2.485 2.239,-4.5 5,-4.5 2.761,0 5,2.015 5,4.5 0,2.485 -2.239,4.5 -5,4.5 -2.761,0 -5,-2.015 -5,-4.5 z"
         stroke="#41719c"
         stroke-width="1.33333"
         stroke-miterlimit="8"
         fill="#5b9bd5"
         fill-rule="evenodd"
         id="path114" />
      <path
         d="m 179.5,345 c 0,-2.485 2.015,-4.5 4.5,-4.5 2.485,0 4.5,2.015 4.5,4.5 0,2.485 -2.015,4.5 -4.5,4.5 -2.485,0 -4.5,-2.015 -4.5,-4.5 z"
         stroke="#41719c"
         stroke-width="1.33333"
         stroke-miterlimit="8"
         fill="#5b9bd5"
         fill-rule="evenodd"
         id="path116" />
      <path
         d="m 74.5001,470 c 0,-2.485 2.2385,-4.5 5,-4.5 2.7614,0 5,2.015 5,4.5 0,2.485 -2.2386,4.5 -5,4.5 -2.7615,0 -5,-2.015 -5,-4.5 z"
         stroke="#507e32"
         stroke-width="1.33333"
         stroke-miterlimit="8"
         fill="#70ad47"
         fill-rule="evenodd"
         id="path118" />
      <path
         d="m 119.5,350.5 c 0,-2.761 2.015,-5 4.5,-5 2.485,0 4.5,2.239 4.5,5 0,2.761 -2.015,5 -4.5,5 -2.485,0 -4.5,-2.239 -4.5,-5 z"
         stroke="#507e32"
         stroke-width="1.33333"
         stroke-miterlimit="8"
         fill="#70ad47"
         fill-rule="evenodd"
         id="path120" />
      <path
         d="m 119.5,372.5 c 0,-2.761 2.015,-5 4.5,-5 2.485,0 4.5,2.239 4.5,5 0,2.761 -2.015,5 -4.5,5 -2.485,0 -4.5,-2.239 -4.5,-5 z"
         stroke="#507e32"
         stroke-width="1.33333"
         stroke-miterlimit="8"
         fill="#70ad47"
         fill-rule="evenodd"
         id="path122" />
      <path
         d="m 119.5,417 c 0,-2.485 2.015,-4.5 4.5,-4.5 2.485,0 4.5,2.015 4.5,4.5 0,2.485 -2.015,4.5 -4.5,4.5 -2.485,0 -4.5,-2.015 -4.5,-4.5 z"
         stroke="#507e32"
         stroke-width="1.33333"
         stroke-miterlimit="8"
         fill="#70ad47"
         fill-rule="evenodd"
         id="path124" />
      <path
         d="m 119.5,470 c 0,-2.485 2.015,-4.5 4.5,-4.5 2.485,0 4.5,2.015 4.5,4.5 0,2.485 -2.015,4.5 -4.5,4.5 -2.485,0 -4.5,-2.015 -4.5,-4.5 z"
         stroke="#507e32"
         stroke-width="1.33333"
         stroke-miterlimit="8"
         fill="#70ad47"
         fill-rule="evenodd"
         id="path126" />
      <path
         d="m 119.5,394.5 c 0,-2.761 2.015,-5 4.5,-5 2.485,0 4.5,2.239 4.5,5 0,2.761 -2.015,5 -4.5,5 -2.485,0 -4.5,-2.239 -4.5,-5 z"
         stroke="#507e32"
         stroke-width="1.33333"
         stroke-miterlimit="8"
         fill="#70ad47"
         fill-rule="evenodd"
         id="path128" />
      <path
         d="m 119.5,439 c 0,-2.485 2.015,-4.5 4.5,-4.5 2.485,0 4.5,2.015 4.5,4.5 0,2.485 -2.015,4.5 -4.5,4.5 -2.485,0 -4.5,-2.015 -4.5,-4.5 z"
         stroke="#507e32"
         stroke-width="1.33333"
         stroke-miterlimit="8"
         fill="#70ad47"
         fill-rule="evenodd"
         id="path130" />
      <path
         d="m 143.5,384.5 c 0,-2.761 2.239,-5 5,-5 2.761,0 5,2.239 5,5 0,2.761 -2.239,5 -5,5 -2.761,0 -5,-2.239 -5,-5 z"
         stroke="#ae5a21"
         stroke-width="1.33333"
         stroke-miterlimit="8"
         fill="#ff0000"
         fill-rule="evenodd"
         id="path132" />
    </g>
  </g>
</svg>
