<svg width="937" height="576" xmlns="http://www.w3.org/2000/svg" xmlns:xlink="http://www.w3.org/1999/xlink" overflow="hidden"><defs><clipPath id="clip0"><rect x="396" y="1765" width="937" height="576"/></clipPath></defs><g clip-path="url(#clip0)" transform="translate(-396 -1765)"><path d="M0 0 0.000360892 449.093" stroke="#D0CECE" stroke-width="4.58333" stroke-miterlimit="8" stroke-dasharray="18.3333 13.75" fill="none" fill-rule="evenodd" transform="matrix(1 0 0 -1 1239.5 2242.59)"/><path d="M429.5 2093.5 1238.55 2093.5" stroke="#D0CECE" stroke-width="4.58333" stroke-miterlimit="8" stroke-dasharray="18.3333 13.75" fill="none" fill-rule="evenodd"/><path d="M428.5 2242.5 1238.69 2242.5" stroke="#D0CECE" stroke-width="4.58333" stroke-miterlimit="8" stroke-dasharray="18.3333 13.75" fill="none" fill-rule="evenodd"/><path d="M429.5 1794.5 1238.55 1794.5" stroke="#D0CECE" stroke-width="4.58333" stroke-miterlimit="8" stroke-dasharray="18.3333 13.75" fill="none" fill-rule="evenodd"/><path d="M429.5 1943.5 1238.55 1943.5" stroke="#D0CECE" stroke-width="4.58333" stroke-miterlimit="8" stroke-dasharray="18.3333 13.75" fill="none" fill-rule="evenodd"/><path d="M0 0 0.000360892 449.093" stroke="#D0CECE" stroke-width="4.58333" stroke-miterlimit="8" stroke-dasharray="18.3333 13.75" fill="none" fill-rule="evenodd" transform="matrix(1 0 0 -1 430.5 2243.59)"/><path d="M0 0 0.000360892 449.093" stroke="#D0CECE" stroke-width="4.58333" stroke-miterlimit="8" stroke-dasharray="18.3333 13.75" fill="none" fill-rule="evenodd" transform="matrix(1 0 0 -1 545.5 2243.59)"/><path d="M0 0 0.000360892 449.093" stroke="#D0CECE" stroke-width="4.58333" stroke-miterlimit="8" stroke-dasharray="18.3333 13.75" fill="none" fill-rule="evenodd" transform="matrix(1 0 0 -1 661.5 2243.59)"/><path d="M0 0 0.000360892 449.093" stroke="#D0CECE" stroke-width="4.58333" stroke-miterlimit="8" stroke-dasharray="18.3333 13.75" fill="none" fill-rule="evenodd" transform="matrix(1 0 0 -1 776.5 2243.59)"/><path d="M0 0 0.000360892 449.093" stroke="#D0CECE" stroke-width="4.58333" stroke-miterlimit="8" stroke-dasharray="18.3333 13.75" fill="none" fill-rule="evenodd" transform="matrix(1 0 0 -1 892.5 2243.59)"/><path d="M0 0 0.000360892 449.093" stroke="#D0CECE" stroke-width="4.58333" stroke-miterlimit="8" stroke-dasharray="18.3333 13.75" fill="none" fill-rule="evenodd" transform="matrix(1 0 0 -1 1007.5 2244.59)"/><path d="M0 0 0.000360892 449.093" stroke="#D0CECE" stroke-width="4.58333" stroke-miterlimit="8" stroke-dasharray="18.3333 13.75" fill="none" fill-rule="evenodd" transform="matrix(1 0 0 -1 1123.5 2243.59)"/><path d="M483 1962.5C483 1956.15 488.149 1951 494.5 1951 500.851 1951 506 1956.15 506 1962.5 506 1968.85 500.851 1974 494.5 1974 488.149 1974 483 1968.85 483 1962.5Z" fill="#767171" fill-rule="evenodd"/><path d="M607 1962.5C607 1956.15 612.149 1951 618.5 1951 624.851 1951 630 1956.15 630 1962.5 630 1968.85 624.851 1974 618.5 1974 612.149 1974 607 1968.85 607 1962.5Z" fill="#767171" fill-rule="evenodd"/><path d="M736 1962.5C736 1956.15 741.149 1951 747.5 1951 753.851 1951 759 1956.15 759 1962.5 759 1968.85 753.851 1974 747.5 1974 741.149 1974 736 1968.85 736 1962.5Z" fill="#767171" fill-rule="evenodd"/><path d="M851 1962.5C851 1956.15 856.149 1951 862.5 1951 868.851 1951 874 1956.15 874 1962.5 874 1968.85 868.851 1974 862.5 1974 856.149 1974 851 1968.85 851 1962.5Z" fill="#767171" fill-rule="evenodd"/><path d="M961 1848.5C961 1842.15 966.149 1837 972.5 1837 978.851 1837 984 1842.15 984 1848.5 984 1854.85 978.851 1860 972.5 1860 966.149 1860 961 1854.85 961 1848.5Z" fill="#767171" fill-rule="evenodd"/><path d="M1068 1961.5C1068 1955.15 1073.15 1950 1079.5 1950 1085.85 1950 1091 1955.15 1091 1961.5 1091 1967.85 1085.85 1973 1079.5 1973 1073.15 1973 1068 1967.85 1068 1961.5Z" fill="#767171" fill-rule="evenodd"/><path d="M1183 1961.5C1183 1955.15 1188.15 1950 1194.5 1950 1200.85 1950 1206 1955.15 1206 1961.5 1206 1967.85 1200.85 1973 1194.5 1973 1188.15 1973 1183 1967.85 1183 1961.5Z" fill="#767171" fill-rule="evenodd"/><path d="M482 2015.5C482 2009.15 487.149 2004 493.5 2004 499.851 2004 505 2009.15 505 2015.5 505 2021.85 499.851 2027 493.5 2027 487.149 2027 482 2021.85 482 2015.5Z" fill="#767171" fill-rule="evenodd"/><path d="M606 2015.5C606 2009.15 611.149 2004 617.5 2004 623.851 2004 629 2009.15 629 2015.5 629 2021.85 623.851 2027 617.5 2027 611.149 2027 606 2021.85 606 2015.5Z" fill="#767171" fill-rule="evenodd"/><path d="M734 2015.5C734 2009.15 739.149 2004 745.5 2004 751.851 2004 757 2009.15 757 2015.5 757 2021.85 751.851 2027 745.5 2027 739.149 2027 734 2021.85 734 2015.5Z" fill="#767171" fill-rule="evenodd"/><path d="M850 2015.5C850 2009.15 855.149 2004 861.5 2004 867.851 2004 873 2009.15 873 2015.5 873 2021.85 867.851 2027 861.5 2027 855.149 2027 850 2021.85 850 2015.5Z" fill="#767171" fill-rule="evenodd"/><path d="M960 2015.5C960 2009.15 965.149 2004 971.5 2004 977.851 2004 983 2009.15 983 2015.5 983 2021.85 977.851 2027 971.5 2027 965.149 2027 960 2021.85 960 2015.5Z" fill="#767171" fill-rule="evenodd"/><path d="M1072 2015.5C1072 2009.15 1077.15 2004 1083.5 2004 1089.85 2004 1095 2009.15 1095 2015.5 1095 2021.85 1089.85 2027 1083.5 2027 1077.15 2027 1072 2021.85 1072 2015.5Z" fill="#767171" fill-rule="evenodd"/><path d="M1187 2015.5C1187 2009.15 1192.15 2004 1198.5 2004 1204.85 2004 1210 2009.15 1210 2015.5 1210 2021.85 1204.85 2027 1198.5 2027 1192.15 2027 1187 2021.85 1187 2015.5Z" fill="#767171" fill-rule="evenodd"/><path d="M482 2189.5C482 2183.15 487.149 2178 493.5 2178 499.851 2178 505 2183.15 505 2189.5 505 2195.85 499.851 2201 493.5 2201 487.149 2201 482 2195.85 482 2189.5Z" fill="#767171" fill-rule="evenodd"/><path d="M606 2073.5C606 2067.15 611.149 2062 617.5 2062 623.851 2062 629 2067.15 629 2073.5 629 2079.85 623.851 2085 617.5 2085 611.149 2085 606 2079.85 606 2073.5Z" fill="#767171" fill-rule="evenodd"/><path d="M734 2189.5C734 2183.15 739.149 2178 745.5 2178 751.851 2178 757 2183.15 757 2189.5 757 2195.85 751.851 2201 745.5 2201 739.149 2201 734 2195.85 734 2189.5Z" fill="#767171" fill-rule="evenodd"/><path d="M850 2189.5C850 2183.15 855.149 2178 861.5 2178 867.851 2178 873 2183.15 873 2189.5 873 2195.85 867.851 2201 861.5 2201 855.149 2201 850 2195.85 850 2189.5Z" fill="#767171" fill-rule="evenodd"/><path d="M960 2073.5C960 2067.15 965.149 2062 971.5 2062 977.851 2062 983 2067.15 983 2073.5 983 2079.85 977.851 2085 971.5 2085 965.149 2085 960 2079.85 960 2073.5Z" fill="#767171" fill-rule="evenodd"/><path d="M1072 2073.5C1072 2067.15 1077.15 2062 1083.5 2062 1089.85 2062 1095 2067.15 1095 2073.5 1095 2079.85 1089.85 2085 1083.5 2085 1077.15 2085 1072 2079.85 1072 2073.5Z" fill="#767171" fill-rule="evenodd"/><path d="M1187 2189.5C1187 2183.15 1192.15 2178 1198.5 2178 1204.85 2178 1210 2183.15 1210 2189.5 1210 2195.85 1204.85 2201 1198.5 2201 1192.15 2201 1187 2195.85 1187 2189.5Z" fill="#767171" fill-rule="evenodd"/><path d="M0.864849-0.751645 100.365 113.734 98.6353 115.237-0.864849 0.751645ZM97.2536 92.952 100.918 116.117 78.4898 109.26C77.8846 109.075 77.544 108.434 77.7291 107.829 77.9141 107.224 78.5547 106.883 79.1599 107.068L99.8347 113.389 98.3679 114.664 94.99 93.3101C94.8912 92.685 95.3177 92.0982 95.9428 91.9993 96.5678 91.9004 97.1547 92.327 97.2536 92.952Z" fill="#AFABAB" transform="matrix(1 0 0 -1 505 2189.11)"/><path d="M625.761 2080.14 736.388 2178.49 734.866 2180.2 624.239 2081.86ZM730.637 2158.28 737.242 2180.78 714.12 2176.86C713.496 2176.75 713.076 2176.16 713.182 2175.54 713.287 2174.91 713.879 2174.49 714.503 2174.6L735.818 2178.22 734.527 2179.67 728.438 2158.92C728.26 2158.32 728.607 2157.68 729.214 2157.5 729.822 2157.32 730.458 2157.67 730.637 2158.28Z" fill="#AFABAB"/><path d="M757 2187.85 847.13 2187.85 847.13 2190.15 757 2190.15ZM829.404 2176.57 849.292 2189 829.404 2201.43C828.868 2201.77 828.161 2201.6 827.825 2201.07 827.49 2200.53 827.653 2199.82 828.19 2199.49L846.523 2188.03 846.523 2189.97 828.19 2178.51C827.653 2178.18 827.49 2177.47 827.825 2176.93 828.161 2176.4 828.868 2176.23 829.404 2176.57Z" fill="#AFABAB"/><path d="M0.836087-0.783513 92.8655 97.4212 91.1933 98.9882-0.836087 0.783513ZM88.9788 76.7713 93.5082 99.7827 70.8391 93.7705C70.2274 93.6082 69.863 92.9809 70.0253 92.3692 70.1875 91.7575 70.8149 91.3931 71.4265 91.5554L92.3236 97.0976 90.9056 98.4265 86.7303 77.2139C86.608 76.593 87.0123 75.9906 87.6332 75.8684 88.2542 75.7462 88.8566 76.1504 88.9788 76.7713Z" fill="#AFABAB" transform="matrix(1 0 0 -1 869 2180.78)"/><path d="M983 2071.85 1070.36 2071.85 1070.36 2074.15 983 2074.15ZM1052.63 2060.57 1072.52 2073 1052.63 2085.43C1052.09 2085.77 1051.39 2085.6 1051.05 2085.07 1050.71 2084.53 1050.88 2083.82 1051.41 2083.49L1069.75 2072.03 1069.75 2073.97 1051.41 2062.51C1050.88 2062.18 1050.71 2061.47 1051.05 2060.93 1051.39 2060.4 1052.09 2060.24 1052.63 2060.57Z" fill="#AFABAB"/><path d="M1092.82 2080.2 1189.81 2178.44 1188.18 2180.05 1091.18 2081.8ZM1185.39 2157.9 1190.52 2180.78 1167.7 2175.36C1167.08 2175.22 1166.7 2174.6 1166.85 2173.98 1166.99 2173.37 1167.61 2172.99 1168.23 2173.13L1189.26 2178.13 1187.88 2179.49 1183.15 2158.4C1183.01 2157.78 1183.4 2157.17 1184.02 2157.03 1184.64 2156.89 1185.25 2157.28 1185.39 2157.9Z" fill="#AFABAB"/><path d="M505 2014.85 603.759 2014.85 603.759 2017.15 505 2017.15ZM586.033 2003.57 605.92 2016 586.032 2028.43C585.496 2028.77 584.789 2028.6 584.453 2028.07 584.118 2027.53 584.281 2026.82 584.818 2026.49L603.151 2015.03 603.151 2016.97 584.818 2005.51C584.281 2005.18 584.118 2004.47 584.454 2003.93 584.789 2003.4 585.496 2003.23 586.033 2003.57Z" fill="#AFABAB"/><path d="M629 2014.85 732.316 2014.85 732.316 2017.15 629 2017.15ZM714.59 2003.57 734.478 2016 714.59 2028.43C714.053 2028.77 713.346 2028.6 713.011 2028.07 712.676 2027.53 712.839 2026.82 713.375 2026.49L731.709 2015.03 731.709 2016.97 713.375 2005.51C712.839 2005.18 712.676 2004.47 713.011 2003.93 713.346 2003.4 714.053 2003.23 714.59 2003.57Z" fill="#AFABAB"/><path d="M757 2014.85 847.13 2014.85 847.13 2017.15 757 2017.15ZM829.404 2003.57 849.292 2016 829.404 2028.43C828.868 2028.77 828.161 2028.6 827.825 2028.07 827.49 2027.53 827.653 2026.82 828.19 2026.49L846.523 2015.03 846.523 2016.97 828.19 2005.51C827.653 2005.18 827.49 2004.47 827.825 2003.93 828.161 2003.4 828.868 2003.23 829.404 2003.57Z" fill="#AFABAB"/><path d="M873 2014.85 957.583 2014.85 957.583 2017.15 873 2017.15ZM939.857 2003.57 959.745 2016 939.857 2028.43C939.32 2028.77 938.613 2028.6 938.278 2028.07 937.942 2027.53 938.106 2026.82 938.642 2026.49L956.976 2015.03 956.976 2016.97 938.642 2005.51C938.106 2005.18 937.943 2004.47 938.278 2003.93 938.613 2003.4 939.32 2003.23 939.857 2003.57Z" fill="#AFABAB"/><path d="M983 2014.85 1070.36 2014.85 1070.36 2017.15 983 2017.15ZM1052.63 2003.57 1072.52 2016 1052.63 2028.43C1052.09 2028.77 1051.39 2028.6 1051.05 2028.07 1050.71 2027.53 1050.88 2026.82 1051.41 2026.49L1069.75 2015.03 1069.75 2016.97 1051.41 2005.51C1050.88 2005.18 1050.71 2004.47 1051.05 2003.93 1051.39 2003.4 1052.09 2003.23 1052.63 2003.57Z" fill="#AFABAB"/><path d="M1095 2014.85 1184.59 2014.85 1184.59 2017.15 1095 2017.15ZM1166.87 2003.57 1186.75 2016 1166.86 2028.43C1166.33 2028.77 1165.62 2028.6 1165.29 2028.07 1164.95 2027.53 1165.11 2026.82 1165.65 2026.49L1183.98 2015.03 1183.98 2016.97 1165.65 2005.51C1165.11 2005.18 1164.95 2004.47 1165.29 2003.93 1165.62 2003.4 1166.33 2003.23 1166.87 2003.57Z" fill="#AFABAB"/><path d="M506 1959.85 604.759 1959.85 604.759 1962.15 506 1962.15ZM587.033 1948.57 606.921 1961 587.032 1973.43C586.496 1973.77 585.789 1973.6 585.453 1973.07 585.118 1972.53 585.281 1971.82 585.818 1971.49L604.151 1960.03 604.151 1961.97 585.818 1950.51C585.281 1950.18 585.118 1949.47 585.454 1948.93 585.789 1948.4 586.496 1948.23 587.033 1948.57Z" fill="#AFABAB"/><path d="M630 1959.85 733.316 1959.85 733.316 1962.15 630 1962.15ZM715.59 1948.57 735.478 1961 715.59 1973.43C715.053 1973.77 714.346 1973.6 714.011 1973.07 713.676 1972.53 713.839 1971.82 714.375 1971.49L732.709 1960.03 732.709 1961.97 714.375 1950.51C713.839 1950.18 713.676 1949.47 714.011 1948.93 714.346 1948.4 715.053 1948.23 715.59 1948.57Z" fill="#AFABAB"/><path d="M759 1959.85 849.13 1959.85 849.13 1962.15 759 1962.15ZM831.404 1948.57 851.292 1961 831.404 1973.43C830.868 1973.77 830.161 1973.6 829.825 1973.07 829.49 1972.53 829.653 1971.82 830.19 1971.49L848.523 1960.03 848.523 1961.97 830.19 1950.51C829.653 1950.18 829.49 1949.47 829.825 1948.93 830.161 1948.4 830.868 1948.23 831.404 1948.57Z" fill="#AFABAB"/><path d="M0.827868-0.792192 92.8413 95.3651 91.1856 96.9494-0.827868 0.792192ZM88.7391 74.7566 93.5083 97.7194 70.7776 91.9439C70.1643 91.7881 69.7934 91.1646 69.9493 90.5512 70.1051 89.9379 70.7287 89.567 71.342 89.7228L92.2957 95.0468 90.8917 96.3904 86.4953 75.2226C86.3666 74.603 86.7646 73.9964 87.3842 73.8677 88.0038 73.739 88.6104 74.137 88.7391 74.7566Z" fill="#AFABAB" transform="matrix(1 0 0 -1 871 1954.71)"/><path d="M984.919 1848.32 1067.7 1959.36 1065.87 1960.73 983.082 1849.68ZM1066.16 1938.4 1068.08 1961.78 1046.22 1953.26C1045.63 1953.03 1045.34 1952.37 1045.57 1951.78 1045.8 1951.19 1046.47 1950.9 1047.06 1951.13L1067.2 1958.98 1065.64 1960.14 1063.87 1938.59C1063.82 1937.96 1064.29 1937.41 1064.92 1937.36 1065.55 1937.3 1066.1 1937.77 1066.16 1938.4Z" fill="#AFABAB"/><path d="M1091 1959.85 1180.59 1959.85 1180.59 1962.15 1091 1962.15ZM1162.87 1948.57 1182.75 1961 1162.87 1973.43C1162.33 1973.77 1161.62 1973.6 1161.29 1973.07 1160.95 1972.53 1161.11 1971.82 1161.65 1971.49L1179.98 1960.03 1179.98 1961.97 1161.65 1950.51C1161.11 1950.18 1160.95 1949.47 1161.29 1948.93 1161.62 1948.4 1162.33 1948.23 1162.87 1948.57Z" fill="#AFABAB"/><path d="M418 1785.85 1259.64 1785.85 1259.64 1788.15 418 1788.15ZM1232.72 1769.97 1261.91 1787 1232.72 1804.03C1232.17 1804.35 1231.47 1804.17 1231.15 1803.62 1230.83 1803.07 1231.01 1802.37 1231.56 1802.05L1259.06 1786.01 1259.06 1787.99 1231.56 1771.95C1231.01 1771.63 1230.83 1770.93 1231.15 1770.38 1231.47 1769.83 1232.17 1769.65 1232.72 1769.97Z"/><path d="M419.146 1787 419.146 2273.34 416.855 2273.34 416.854 1787ZM435.032 2246.41 418 2275.61 400.969 2246.41C400.65 2245.87 400.835 2245.17 401.381 2244.85 401.928 2244.53 402.63 2244.71 402.948 2245.26L418.99 2272.76 417.011 2272.76 433.052 2245.26C433.371 2244.71 434.073 2244.53 434.619 2244.85 435.166 2245.17 435.351 2245.87 435.032 2246.41Z"/><text font-family="Times New Roman,Times New Roman_MSFontService,sans-serif" font-style="italic" font-weight="400" font-size="55" transform="matrix(1 0 0 1 1247.11 1838)">f<tspan font-size="37" x="15.4688" y="-17">tm</tspan><tspan font-size="55" x="-815.254" y="457">f</tspan><tspan font-size="37" x="-799.785" y="440">sp</tspan></text><path d="M573.5 2017.5C573.5 1960.61 593.199 1914.5 617.5 1914.5 641.8 1914.5 661.5 1960.61 661.5 2017.5 661.5 2074.39 641.8 2120.5 617.5 2120.5 593.199 2120.5 573.5 2074.39 573.5 2017.5Z" stroke="#FF0000" stroke-width="6.875" stroke-miterlimit="8" stroke-dasharray="6.875 6.875" fill="none" fill-rule="evenodd"/><path d="M1034.5 2021C1034.5 1962.73 1054.42 1915.5 1079 1915.5 1103.58 1915.5 1123.5 1962.73 1123.5 2021 1123.5 2079.27 1103.58 2126.5 1079 2126.5 1054.42 2126.5 1034.5 2079.27 1034.5 2021Z" stroke="#FF0000" stroke-width="6.875" stroke-miterlimit="8" stroke-dasharray="6.875 6.875" fill="none" fill-rule="evenodd"/></g></svg>